<?xml version="1.0" encoding="UTF-8" standalone="no"?>
<svg
   version="1.0"
   width="224.528pt"
   height="50.452999pt"
   viewBox="0 0 224.528 50.452999"
   preserveAspectRatio="xMidYMid"
   id="svg10"
   sodipodi:docname="awas1_1.svg"
   xml:space="preserve"
   inkscape:version="1.3.2 (091e20e, 2023-11-25, custom)"
   xmlns:inkscape="http://www.inkscape.org/namespaces/inkscape"
   xmlns:sodipodi="http://sodipodi.sourceforge.net/DTD/sodipodi-0.dtd"
   xmlns="http://www.w3.org/2000/svg"
   xmlns:svg="http://www.w3.org/2000/svg"><defs
     id="defs10" /><sodipodi:namedview
     id="namedview10"
     pagecolor="#505050"
     bordercolor="#eeeeee"
     borderopacity="1"
     inkscape:showpageshadow="0"
     inkscape:pageopacity="0"
     inkscape:pagecheckerboard="0"
     inkscape:deskcolor="#505050"
     inkscape:document-units="pt"
     inkscape:zoom="1.1540444"
     inkscape:cx="404.23055"
     inkscape:cy="57.623433"
     inkscape:window-width="1365"
     inkscape:window-height="1041"
     inkscape:window-x="109"
     inkscape:window-y="57"
     inkscape:window-maximized="0"
     inkscape:current-layer="svg10" /><g
     id="g17"
     transform="matrix(0.24864398,0,0,0.24864398,-4.103099,-2.2701424)"><g
       transform="matrix(0.1,0,0,-0.1,0,249)"
       fill="#000000"
       stroke="none"
       id="g10"><path
         d="m 520,2389 c -71,-10 -206,-53 -248,-79 -31,-19 -32,-22 -32,-89 0,-39 5,-73 10,-76 6,-3 58,11 118,31 100,36 115,38 227,38 110,1 125,-1 170,-24 73,-38 98,-93 103,-222 3,-54 0,-98 -4,-98 -5,0 -47,7 -94,15 -47,8 -128,15 -180,15 -155,0 -256,-37 -335,-121 -71,-76 -89,-125 -90,-239 0,-84 3,-102 28,-152 57,-116 168,-180 313,-181 134,0 240,41 335,130 l 46,42 17,-35 c 26,-56 66,-104 92,-110 26,-7 114,43 139,79 12,17 12,24 -1,50 -46,88 -48,100 -54,432 -6,304 -7,323 -30,379 -68,174 -266,254 -530,215 z m 280,-652 65,-12 3,-50 c 9,-130 -53,-232 -167,-276 -80,-31 -193,-32 -241,-2 -127,79 -90,302 57,341 53,14 205,13 283,-1 z"
         id="path1" /><path
         d="m 3151,2384 c -193,-41 -310,-173 -298,-334 5,-82 33,-146 86,-199 54,-54 107,-79 282,-134 169,-54 223,-86 238,-145 11,-39 5,-78 -19,-122 -18,-33 -112,-72 -189,-78 -84,-5 -231,20 -315,54 -85,36 -96,30 -96,-46 0,-34 4,-69 10,-79 22,-42 242,-101 378,-101 137,0 289,56 358,133 89,98 113,242 60,351 -49,100 -111,139 -337,210 -204,65 -249,100 -249,198 0,32 7,47 33,73 74,74 236,84 409,24 49,-16 93,-27 98,-24 6,3 10,34 10,69 0,52 -4,66 -23,84 -30,28 -92,49 -196,67 -101,18 -155,18 -240,-1 z"
         id="path2" /><path
         d="m 1913,2361 c -24,-4 -46,-10 -49,-14 -8,-7 -24,-74 -129,-524 -42,-181 -79,-335 -82,-343 -6,-15 -20,36 -153,560 -40,157 -79,293 -88,303 -20,23 -199,26 -208,3 -3,-8 6,-52 19,-98 201,-665 301,-985 311,-996 9,-9 42,-14 106,-14 77,0 95,3 110,19 12,12 50,154 116,431 54,226 101,412 104,412 4,0 14,-35 24,-77 10,-43 49,-204 86,-358 37,-154 73,-304 80,-334 7,-30 23,-65 36,-78 20,-20 33,-23 102,-23 61,0 85,4 101,17 15,13 45,96 105,288 46,149 121,388 166,533 45,144 80,268 77,276 -9,23 -98,33 -166,20 -21,-4 -36,-16 -45,-33 -7,-14 -62,-216 -122,-448 -60,-232 -111,-420 -113,-417 -3,2 -50,198 -106,435 -64,268 -108,436 -118,446 -18,19 -99,25 -164,14 z"
         id="path3" /><path
         d="m 6777,2184 c -4,-4 -7,-83 -7,-176 0,-155 -6,-189 -26,-157 -3,6 -30,22 -58,35 -99,46 -230,28 -300,-42 -54,-54 -80,-128 -84,-236 -6,-164 37,-261 139,-312 87,-43 190,-35 281,23 l 47,30 3,-32 c 3,-28 7,-32 33,-32 h 30 v 450 450 l -25,3 c -14,2 -29,0 -33,-4 z m -97,-360 c 94,-44 90,-33 90,-236 v -178 l -46,-29 c -126,-81 -263,-60 -324,49 -23,41 -25,56 -25,160 0,124 14,168 67,217 54,51 151,58 238,17 z"
         id="path4" /><path
         d="m 7230,1909 c -65,-7 -102,-25 -149,-71 -55,-54 -74,-108 -79,-227 -6,-139 14,-207 78,-272 55,-55 113,-74 220,-73 69,0 189,27 191,43 0,3 2,14 4,23 5,28 -11,31 -67,12 -30,-10 -84,-17 -129,-17 -141,-1 -214,62 -226,193 l -6,60 h 216 216 l 7,36 c 9,50 -1,135 -21,175 -48,96 -128,132 -255,118 z m 130,-78 c 46,-24 80,-89 80,-153 v -48 h -186 -187 l 6,52 c 8,67 46,124 100,149 55,25 141,25 187,0 z"
         id="path5" /><path
         d="m 4607,1895 c -57,-16 -77,-31 -77,-58 0,-21 0,-21 110,2 25,6 72,10 105,11 110,0 155,-51 155,-176 0,-64 -1,-66 -22,-60 -13,3 -56,11 -96,17 -175,25 -287,-48 -287,-186 0,-76 28,-125 89,-154 75,-37 204,-19 285,38 l 30,21 3,-32 c 2,-27 8,-34 30,-36 22,-3 29,2 33,21 4,13 5,127 3,253 -3,208 -5,233 -24,269 -32,62 -86,85 -199,84 -49,0 -112,-7 -138,-14 z m 266,-334 c 27,-11 28,-12 25,-83 l -3,-73 -66,-33 c -131,-66 -235,-50 -259,38 -19,70 18,138 86,160 35,12 179,5 217,-9 z"
         id="path6" /><path
         d="m 5305,1893 c -78,-28 -111,-57 -147,-130 -30,-62 -33,-74 -33,-168 0,-155 43,-248 138,-297 53,-27 182,-35 247,-16 38,12 46,18 48,42 4,28 3,28 -40,20 -24,-5 -74,-9 -113,-9 -147,1 -209,79 -207,262 3,189 65,248 257,241 87,-3 100,-1 103,14 9,48 -157,75 -253,41 z"
         id="path7" /><path
         d="m 5770,1892 c -47,-15 -55,-22 -58,-45 -4,-31 0,-32 83,-12 80,20 169,19 211,-1 49,-23 64,-59 64,-150 0,-68 -2,-75 -17,-70 -35,14 -169,26 -208,20 -71,-11 -133,-52 -161,-106 -23,-44 -18,-139 9,-178 37,-55 70,-74 141,-78 72,-5 143,14 200,53 l 34,23 7,-35 c 5,-30 9,-34 33,-31 l 27,3 3,248 c 3,278 0,295 -66,345 -32,25 -44,27 -141,29 -80,2 -120,-2 -161,-15 z m 278,-328 c 20,-6 22,-12 22,-86 v -79 l -67,-32 c -55,-25 -82,-31 -136,-31 -66,-1 -70,0 -99,33 -28,31 -30,39 -26,88 5,62 24,87 84,109 38,14 165,13 222,-2 z"
         id="path8" /><path
         d="m 7859,1896 c -20,-7 -57,-24 -82,-38 l -46,-26 -3,26 c -4,29 -28,48 -52,39 -15,-6 -16,-36 -14,-309 l 3,-303 32,-3 33,-3 2,252 3,252 58,29 c 69,35 160,47 207,28 60,-25 65,-48 68,-318 l 3,-243 30,3 30,3 -1,247 -1,246 65,32 c 73,36 177,51 214,31 53,-28 57,-47 62,-311 l 5,-245 h 30 30 l 3,248 c 2,228 1,252 -17,292 -31,69 -68,87 -171,83 -76,-4 -93,-8 -159,-43 l -73,-39 -20,27 c -11,15 -33,34 -49,42 -35,18 -141,19 -190,1 z"
         id="path9" /><path
         d="m 8646,1892 c -3,-4 51,-145 118,-311 l 124,-304 -31,-74 c -38,-94 -70,-123 -138,-123 -45,0 -49,-2 -49,-24 0,-32 11,-38 68,-39 56,0 103,22 132,63 28,40 332,792 325,807 -2,7 -16,13 -30,13 -30,0 -24,13 -151,-312 -48,-125 -91,-224 -95,-220 -3,4 -50,122 -104,262 -55,140 -104,258 -110,262 -14,10 -53,10 -59,0 z"
         id="path10" /></g><path
       d="M 153.97137,211.4181 C 129.64742,208.51966 100.11673,199.88229 77.956884,189.18479 51.810868,176.563 19.269236,153.54688 19.269236,147.67604 c 0,-3.64452 3.526222,-2.73697 17.616562,4.534 34.210928,17.65369 73.163162,29.4765 114.290922,34.68968 15.10939,1.91521 57.70608,1.91296 70.98411,-0.004 32.5358,-4.69658 53.89713,-10.05217 82.60628,-20.71055 8.78708,-3.26224 12.12093,-3.55639 14.04409,-1.23909 2.36689,2.85188 0.0881,6.10521 -8.14206,11.62416 -23.52718,15.77678 -53.54531,26.98534 -90.1851,33.67449 -8.91119,1.62687 -55.76905,2.45335 -66.51267,1.17313 z m 168.56687,-14.83859 c 0.32427,-1.38336 2.64657,-8.45001 5.1607,-15.70368 5.49225,-15.84612 6.13746,-24.30748 2.05593,-26.96186 -4.0912,-2.66069 -13.32893,-3.25742 -26.94066,-1.74027 -14.56904,1.62383 -17.12687,1.2261 -15.2053,-2.36438 3.54478,-6.62347 30.01949,-13.1599 45.30051,-11.1844 14.60643,1.88829 16.82969,4.02971 15.65528,15.07902 -1.18891,11.18579 -6.06209,24.82511 -12.08961,33.83699 -5.76085,8.6132 -8.91912,11.55377 -12.40909,11.55377 -1.62518,0 -1.98027,-0.58463 -1.52776,-2.51519 z"
       style="fill:#fe9903;fill-opacity:1;stroke-width:1.49048"
       id="path1-8" /></g></svg>
