<?xml version="1.0" encoding="UTF-8" standalone="no"?>
<svg
   version="1.1"
   width="165.45399"
   height="87.139"
   id="svg16"
   sodipodi:docname="clients2.svg"
   inkscape:version="1.3.2 (091e20e, 2023-11-25, custom)"
   xmlns:inkscape="http://www.inkscape.org/namespaces/inkscape"
   xmlns:sodipodi="http://sodipodi.sourceforge.net/DTD/sodipodi-0.dtd"
   xmlns="http://www.w3.org/2000/svg"
   xmlns:svg="http://www.w3.org/2000/svg">
  <defs
     id="defs16" />
  <sodipodi:namedview
     id="namedview16"
     pagecolor="#505050"
     bordercolor="#eeeeee"
     borderopacity="1"
     inkscape:showpageshadow="0"
     inkscape:pageopacity="0"
     inkscape:pagecheckerboard="0"
     inkscape:deskcolor="#505050"
     inkscape:zoom="2.5146485"
     inkscape:cx="128.04971"
     inkscape:cy="82.516503"
     inkscape:window-width="1920"
     inkscape:window-height="1057"
     inkscape:window-x="-8"
     inkscape:window-y="-8"
     inkscape:window-maximized="1"
     inkscape:current-layer="svg16" />
  <g
     id="g1"
     transform="matrix(0.55151154,0,0,0.55151154,0.34860601,0.15188883)">
    <path
       d="m 244.13393,103.4685 c 7.22797,-0.17501 13.77918,2.23664 19.30833,6.80301 0.23665,0.17825 0.47335,0.35646 0.71719,0.54015 1.05751,0.96503 1.91941,2.06872 2.79558,3.19708 0.21465,0.2746 0.21465,0.2746 0.4336,0.55473 4.38095,5.90594 5.80313,13.42652 4.79072,20.6279 -0.85987,5.04494 -3.01513,9.54917 -6.39525,13.38693 -0.18355,0.24087 -0.3671,0.48178 -0.55619,0.72996 -0.96132,1.05015 -2.06551,1.90452 -3.19076,2.77377 -0.2753,0.21405 -0.2753,0.21405 -0.55619,0.43245 -4.4179,3.26021 -9.91395,4.93655 -15.36836,5.17339 -0.21465,0.009 -0.42925,0.0192 -0.65041,0.0292 -7.84349,0.17164 -15.14003,-2.68476 -20.82138,-8.02934 -4.97594,-5.19362 -7.45168,-11.96642 -7.65491,-19.09499 0.2228,-7.5288 2.93141,-14.64488 8.47547,-19.87421 5.36569,-4.69129 11.58605,-6.90368 18.67255,-7.25009 z m -9.91168,18.48191 c -2.52593,3.17163 -3.17436,6.79409 -2.86327,10.74458 0.50242,3.63315 2.42791,6.55967 5.22799,8.85498 3.28198,2.29791 6.94286,3.10269 10.90147,2.438 3.91217,-0.93151 6.81474,-3.00734 8.92828,-6.38781 0.0915,-0.14303 0.18295,-0.28606 0.2772,-0.43341 1.80357,-3.17083 1.98176,-6.91442 1.07275,-10.35972 -0.98774,-3.46756 -3.07384,-6.22448 -6.20835,-8.02993 -6.0548,-3.21991 -12.79302,-1.93687 -17.33605,3.17331 z"
       fill="#c4112d"
       id="path1"
       style="stroke-width:0.233877" />
    <path
       d="m 147.28674,105.13274 c 0,3.77693 0,7.55398 0,11.44537 -2.91267,-0.56932 -2.91267,-0.56932 -3.81779,-0.74772 -4.04263,-0.78246 -9.18827,-1.57528 -12.86786,0.7331 -0.6784,0.4769 -1.04702,0.87316 -1.34656,1.64965 -0.103,1.06168 -0.11015,1.62981 0.33665,2.59856 1.88299,2.10712 4.49183,2.74548 7.09872,3.57663 5.2699,1.6836 9.96607,3.85155 12.85636,8.83868 2.074,4.16709 1.95291,8.92089 0.55161,13.27283 -1.5322,4.09293 -4.77736,7.01491 -8.66574,8.85228 -1.07709,0.45053 -2.16206,0.82702 -3.27858,1.16791 -0.32965,0.10383 -0.32965,0.10383 -0.66596,0.20975 -1.47292,0.41687 -2.95283,0.6101 -4.47146,0.76833 -0.1869,0.0193 -0.3738,0.0391 -0.56637,0.0595 -2.64684,0.24618 -5.29007,0.14208 -7.93746,-0.0449 -0.27935,-0.0196 -0.55866,-0.0393 -0.84646,-0.0597 -7.90649,-0.61216 -7.90649,-0.61216 -8.69656,-1.40016 -0.022,-0.37282 -0.0275,-0.74659 -0.0265,-1.12005 2e-5,-0.23848 4e-5,-0.477 6e-5,-0.72266 10e-4,-0.2594 0.002,-0.51875 0.004,-0.78595 3.3e-4,-0.26414 5e-4,-0.52818 0.001,-0.80026 0.002,-0.8473 0.005,-1.69459 0.007,-2.54196 10e-4,-0.57291 0.002,-1.14565 0.003,-1.71847 0.002,-1.40777 0.007,-2.81546 0.0115,-4.22319 0.5924,-0.29538 0.76341,-0.19674 1.3923,-0.0254 0.19155,0.0499 0.3831,0.0999 0.58043,0.15126 0.20875,0.0548 0.4175,0.10971 0.63257,0.16624 5.25125,1.3117 12.29323,2.65811 17.30038,-0.0585 0.86015,-0.56413 1.47864,-1.14062 1.87348,-2.10208 0.1676,-1.06927 0.10655,-1.88967 -0.38055,-2.86136 -1.92902,-2.22782 -4.534,-2.99615 -7.27619,-3.86927 -5.14337,-1.64138 -9.87423,-3.89024 -12.67341,-8.74399 -1.87934,-3.71045 -2.03364,-8.19764 -0.82147,-12.16157 0.88734,-2.46922 2.1917,-4.39661 4.05615,-6.23273 0.18565,-0.19284 0.18565,-0.19284 0.37505,-0.38961 6.98775,-6.66581 18.88157,-4.67428 27.25871,-2.88052 z"
       fill="#c4112d"
       id="path2"
       style="stroke-width:0.233877" />
    <path
       d="m 192.92345,103.54151 c 0.25075,0.01 0.50146,0.0202 0.75978,0.0306 3.38239,0.17246 6.56475,0.82376 9.80779,1.79412 0,4.70195 0,9.40385 0,14.24835 -0.90701,-0.3016 -1.77577,-0.61441 -2.65842,-0.97112 -4.55358,-1.80641 -9.85838,-2.46537 -14.48004,-0.50068 -3.22395,1.47546 -5.76065,3.55921 -7.03217,6.96021 -1.38838,3.92096 -1.37268,7.96871 0.3588,11.77533 1.78193,3.53027 4.64764,5.54239 8.35563,6.79477 5.28768,1.49789 10.55761,-0.14785 15.45618,-2.10223 0,4.70194 0,9.40389 0,14.24828 -9.12902,2.39611 -18.35828,2.89001 -26.82144,-1.85582 -3.57471,-2.1243 -6.78645,-4.88767 -9.00879,-8.42158 -0.11925,-0.17855 -0.2385,-0.35713 -0.36135,-0.54109 -3.74277,-5.82517 -4.61611,-13.76214 -3.23925,-20.46644 1.02753,-4.52811 3.01726,-8.72348 6.17662,-12.16065 0.19745,-0.21591 0.39485,-0.43175 0.59827,-0.65419 5.7267,-5.98509 13.93941,-8.50747 22.08836,-8.17799 z"
       fill="#c4112d"
       id="path3"
       style="stroke-width:0.233877" />
    <path
       d="m 55.749868,103.55611 c 0.25385,0.0106 0.507645,0.0218 0.76916,0.0329 3.4167,0.17243 6.4245,0.83242 9.739865,1.77722 0,4.70194 0,9.40385 0,14.24835 -0.3864,-0.15424 -0.772805,-0.30844 -1.17092,-0.46725 -5.097805,-1.97553 -10.55852,-3.16299 -15.855024,-1.05653 -3.610127,1.70687 -5.817597,3.89344 -7.319181,7.584 -0.554095,1.61868 -0.797948,3.04059 -0.785799,4.7427 0.0013,0.19475 0.0027,0.38963 0.004,0.59037 0.06849,3.49504 1.346103,6.86054 3.816133,9.39509 3.48911,2.99688 7.616586,4.06745 12.177596,3.73723 3.226995,-0.33294 6.13667,-1.37381 9.133195,-2.56932 0,4.70192 0,9.40387 0,14.24826 -3.81937,1.08842 -3.81937,1.08842 -5.38624,1.32842 -0.1768,0.0282 -0.35355,0.0562 -0.53572,0.0852 -1.611805,0.24605 -3.22088,0.39172 -4.85052,0.45498 -0.224,0.009 -0.448,0.0188 -0.67877,0.0293 -7.678669,0.16784 -14.87602,-2.47413 -20.566164,-7.61139 -4.885971,-4.66803 -7.674086,-11.07659 -7.864392,-17.83042 -0.0045,-0.54139 -0.0053,-1.08269 -0.0027,-1.62419 0.0011,-0.28572 0.0023,-0.5715 0.0035,-0.86599 0.09679,-7.49137 3.066913,-13.84469 8.336592,-19.11855 5.644592,-5.31669 13.407189,-7.44351 21.035439,-7.11043 z"
       fill="#c4112d"
       id="path4"
       style="stroke-width:0.233877" />
    <path
       d="m 81.480888,0.72323784 c 1.425505,1.05504786 2.272025,2.29106466 2.81022,3.97082806 0.13055,0.9966605 0.1276,1.9819466 0.1205,2.9860172 0.0025,0.4437628 0.0025,0.4437628 0.005,0.8964836 0.0045,0.8163442 0.003,1.6325953 4.3e-4,2.4489463 -0.0015,0.882284 0.002,1.764532 0.005,2.646798 0.005,1.726528 0.005,3.453027 0.003,5.179565 -0.0015,1.403671 -0.001,2.807335 2.95e-4,4.211009 2.15e-4,0.200006 4.25e-4,0.400006 5e-4,0.606074 4.35e-4,0.40634 0.001,0.812675 0.0015,1.219023 0.004,3.807908 0.002,7.615793 -0.002,11.423705 -0.0035,3.481411 -1.5e-5,6.962712 0.007,10.444116 0.007,3.577549 0.0095,7.155242 0.007,10.732841 -2.4e-4,0.404849 -4.7e-4,0.809733 -5e-4,1.214666 -1.1e-4,0.19916 -2.2e-4,0.398295 -3.35e-4,0.603515 -5e-4,1.401366 0.002,2.802607 0.005,4.203857 0.004,1.708758 0.004,3.417481 -0.001,5.126238 -0.0025,0.871199 -0.0035,1.742362 0.001,2.613679 0.0045,0.945718 2.3e-4,1.891286 -0.005,2.837122 0.003,0.273495 0.0055,0.54695 0.0085,0.828798 -0.025,2.180305 -0.635585,3.769436 -2.058265,5.427813 -1.282975,1.174115 -2.93286,1.696367 -4.654415,1.78093 -2.102875,-0.106598 -3.73659,-0.85657 -5.20969,-2.33852 -1.289655,-1.824875 -1.483485,-3.47129 -1.468005,-5.669414 -0.0015,-0.295849 -0.0035,-0.591598 -0.005,-0.896448 -0.0045,-0.816352 -0.003,-1.632624 -4.3e-4,-2.448971 0.0015,-0.882268 -0.002,-1.764496 -0.005,-2.646814 -0.005,-1.726496 -0.005,-3.453008 -0.003,-5.179534 0.0015,-1.403758 0.001,-2.807342 -3e-4,-4.211035 -2.1e-4,-0.200012 -4.2e-4,-0.400078 -5e-4,-0.606097 -4.3e-4,-0.406289 -0.001,-0.812678 -0.0015,-1.218997 -0.004,-3.80791 -0.002,-7.615782 0.002,-11.423697 0.0035,-3.481344 1.5e-5,-6.962708 -0.0065,-10.444085 -0.007,-3.577613 -0.0095,-7.155201 -0.007,-10.732821 2.4e-4,-0.404896 4.7e-4,-0.809794 5e-4,-1.214687 1.15e-4,-0.199195 2.25e-4,-0.398394 3.4e-4,-0.603627 5e-4,-1.401283 -0.002,-2.80256 -0.005,-4.203835 -0.004,-1.708739 -0.004,-3.417419 0.001,-5.126148 0.0025,-0.871248 0.0035,-1.742378 -0.001,-2.613617 -0.0045,-0.9458004 -2.3e-4,-1.8913523 0.005,-2.8371632 -0.003,-0.2735045 -0.0055,-0.547009 -0.0085,-0.8288033 0.025,-2.1802819 0.63558,-3.7694444 2.058265,-5.4277793 2.359305,-2.15923021 5.682885,-2.16874086 8.401365,-0.72993136 z"
       fill="#14485c"
       id="path5"
       style="stroke-width:0.233877" />
    <path
       d="m 225.46046,1.1028023 c 1.26114,1.3656966 2.17897,2.9281781 2.18366,4.8018078 0.001,0.2521825 0.003,0.5043739 0.004,0.7641962 1.1e-4,0.2781045 2.3e-4,0.5562104 3.5e-4,0.8427447 0.002,0.4419599 0.002,0.4419599 0.003,0.8928481 0.003,0.8194812 0.004,1.6389679 0.005,2.4584609 10e-4,0.883245 0.004,1.766488 0.007,2.64973 0.006,2.134073 0.009,4.268148 0.012,6.402223 0.001,0.602798 0.002,1.205603 0.002,1.808402 0.006,3.743451 0.011,7.48692 0.014,11.230377 5e-4,0.867212 10e-4,1.734414 0.002,2.601615 1.8e-4,0.215532 3.5e-4,0.431071 5e-4,0.653132 0.003,3.490519 0.011,6.981081 0.0205,10.471573 0.01,3.58389 0.0155,7.167854 0.0165,10.751658 10e-4,2.012152 0.004,4.02413 0.0115,6.036328 0.006,1.713901 0.009,3.427743 0.006,5.141659 -0.001,0.874074 -5e-4,1.748008 0.005,2.622122 0.006,0.948913 0.004,1.897615 -3.5e-4,2.846602 0.004,0.274402 0.007,0.548878 0.01,0.831678 -0.02,2.083323 -0.53657,3.603841 -1.89399,5.200713 -1.86722,1.544378 -3.57546,2.119832 -5.98634,1.897849 -1.84833,-0.289404 -3.2961,-1.358496 -4.4495,-2.802985 -0.94303,-1.757124 -1.0708,-3.36866 -1.05569,-5.332042 -0.001,-0.294234 -0.003,-0.588338 -0.005,-0.891369 -0.004,-0.810485 -0.002,-1.620821 0.001,-2.431411 0.002,-0.876381 -0.001,-1.752728 -0.004,-2.62911 -0.004,-1.71443 -0.004,-3.428949 -5e-4,-5.143399 0.002,-1.393799 0.002,-2.787743 0.001,-4.181627 -1.5e-4,-0.198542 -2.9e-4,-0.397288 -4.4e-4,-0.601955 -3e-4,-0.403718 -5e-4,-0.807325 -0.001,-1.211018 -0.002,-3.781588 4e-4,-7.56321 0.006,-11.344827 0.004,-3.242131 0.004,-6.484118 -0.001,-9.726235 -0.005,-3.76845 -0.007,-7.536875 -0.004,-11.305314 3e-4,-0.402143 5e-4,-0.804273 10e-4,-1.206412 1.5e-4,-0.197837 2.9e-4,-0.395672 4.4e-4,-0.599505 10e-4,-1.391574 -5e-4,-2.783143 -0.003,-4.174707 -0.002,-1.696757 -0.002,-3.393476 0.003,-5.09024 0.002,-0.86507 0.004,-1.730091 3.3e-4,-2.59516 -0.004,-0.9391234 5e-4,-1.8780676 0.005,-2.8171768 -0.002,-0.2715318 -0.004,-0.5430615 -0.006,-0.8228152 0.02,-2.0807904 0.3896,-3.8413258 1.82312,-5.4144651 2.74825,-2.49944152 6.1491,-2.37954284 9.26493,-0.5839456 z"
       fill="#14485c"
       id="path6"
       style="stroke-width:0.233877" />
    <path
       d="m 84.291108,104.43196 c 4.40501,0 8.81002,0 13.348515,0 0,17.26618 0,34.53231 0,52.32164 -4.40501,0 -8.81002,0 -13.348515,0 0,-17.26611 0,-34.53215 0,-52.32164 z"
       fill="#c3122d"
       id="path7"
       style="stroke-width:0.233877" />
    <path
       d="m 261.04827,25.505355 c 1.59798,1.196395 2.21994,2.71822 2.53839,4.618195 0.1596,1.299807 0.15475,2.594046 0.1504,3.901986 0.001,0.306469 0.002,0.612929 0.002,0.928678 0.002,0.832954 0.002,1.665873 -1.8e-4,2.498847 -10e-4,0.876118 -8e-5,1.752259 5e-4,2.628371 0.001,1.470384 -2.6e-4,2.940729 -0.003,4.411092 -0.002,1.694748 -10e-4,3.38953 10e-4,5.084244 0.002,1.461055 0.002,2.922111 0.001,4.383178 -5e-4,0.870011 -0.001,1.740033 5e-4,2.610085 0.001,0.970309 -5e-4,1.940649 -0.003,2.910938 10e-4,0.28464 0.002,0.569234 0.003,0.862506 -0.0125,2.565272 -0.2002,4.724833 -1.93695,6.716027 -1.78047,1.622919 -3.30705,1.984909 -5.69819,1.926095 -1.56405,-0.104629 -2.81145,-0.593038 -3.95666,-1.685566 -1.75188,-2.000903 -2.02526,-4.173857 -1.99457,-6.731538 -0.001,-0.337218 -0.003,-0.674441 -0.005,-1.011659 -0.004,-0.907343 -3e-5,-1.814468 0.007,-2.721742 0.005,-0.954086 0.004,-1.908117 0.002,-2.862212 -4.1e-4,-1.600984 0.005,-3.201828 0.0135,-4.802815 0.01,-1.845858 0.0115,-3.691638 0.008,-5.537534 -0.002,-1.783003 -1e-5,-3.565901 0.005,-5.348884 0.002,-0.7556 0.002,-1.511207 0.002,-2.266832 -0.001,-0.890813 0.003,-1.78149 0.0105,-2.672273 0.002,-0.325192 0.002,-0.65041 10e-4,-0.975609 -0.007,-2.200069 0.2099,-4.015258 1.48628,-5.85537 2.68988,-2.61441 6.14826,-2.989445 9.36464,-1.008208 z"
       fill="#14485d"
       id="path8"
       style="stroke-width:0.233877" />
    <path
       d="m 46.294665,25.62853 c 1.355048,1.426628 2.192906,3.017 2.200673,4.982645 0.0017,0.290769 0.0034,0.581536 0.0051,0.881108 6.5e-4,0.322839 0.0013,0.645684 0.0019,0.968525 0.0014,0.33957 0.003,0.679161 0.0046,1.018733 0.005,1.115987 0.0074,2.231977 0.0097,3.34796 9.5e-4,0.384578 0.0019,0.769135 0.0029,1.153659 0.0044,1.807267 0.0078,3.614502 0.0098,5.421721 0.0023,2.083918 0.0084,4.167772 0.0179,6.251631 0.007,1.612002 0.01055,3.223986 0.0113,4.83597 5.5e-4,0.962065 0.0027,1.924201 0.0085,2.886231 0.0055,0.906098 0.0065,1.812106 0.004,2.718238 -1.16e-4,0.331327 0.0014,0.662634 0.0046,0.99395 0.02275,2.474076 -0.28858,4.453053 -2.035862,6.303622 -1.666131,1.455933 -3.449095,1.765339 -5.608535,1.646864 -1.990482,-0.245907 -3.256285,-1.119807 -4.537325,-2.620418 -1.180364,-1.804968 -1.149498,-3.420281 -1.14205,-5.530977 -0.0014,-0.342023 -0.003,-0.683976 -0.0049,-1.026013 -0.0042,-0.925646 -0.0039,-1.851257 -0.0026,-2.776958 7.5e-4,-0.77428 -7e-4,-1.548559 -0.0021,-2.322854 -0.0033,-1.827612 -0.0029,-3.655263 -2.57e-4,-5.482797 0.0027,-1.881848 -6e-4,-3.763611 -0.0069,-5.645455 -0.0052,-1.618937 -0.0067,-3.237847 -0.0053,-4.856782 8e-4,-0.965483 2.35e-4,-1.930935 -0.0038,-2.896383 -0.0037,-0.908418 -0.0027,-1.816714 0.0017,-2.725126 8.5e-4,-0.332089 1.46e-4,-0.664174 -0.0023,-0.99626 -0.01585,-2.317898 0.27404,-3.88026 1.570136,-5.8009 2.747848,-2.679833 6.313157,-2.607676 9.499109,-0.729934 z"
       fill="#14485c"
       id="path9"
       style="stroke-width:0.233877" />
    <path
       d="m 189.74732,25.759909 c 1.33496,1.393446 2.06207,2.926494 2.06737,4.852839 10e-4,0.291105 0.002,0.582208 0.004,0.882132 2.9e-4,0.323207 5e-4,0.646426 0.001,0.969633 0.001,0.339961 0.002,0.679916 0.004,1.019869 0.003,0.924238 0.004,1.84846 0.005,2.772718 5e-4,0.577696 0.001,1.155421 0.002,1.733164 0.003,1.808366 0.006,3.616761 0.007,5.425091 0.001,2.085928 0.005,4.171758 0.012,6.257601 0.005,1.613161 0.007,3.226251 0.008,4.839511 2.4e-4,0.963023 0.002,1.925886 0.006,2.888923 0.004,0.906686 0.005,1.813282 0.002,2.719948 -1.8e-4,0.331805 0.001,0.663615 0.003,0.995415 0.0165,2.493096 -0.1665,4.346974 -1.94757,6.215621 -1.68588,1.49922 -3.46246,1.828254 -5.66891,1.707013 -1.98057,-0.244596 -3.24892,-1.116776 -4.53733,-2.59761 -1.16972,-1.86598 -1.15091,-3.646167 -1.14576,-5.788722 -0.001,-0.339296 -0.003,-0.678722 -0.006,-1.018073 -0.005,-0.917477 -0.006,-1.834864 -0.005,-2.752325 2e-5,-0.76791 -0.002,-1.5358 -0.004,-2.30369 -0.005,-1.812764 -0.005,-3.625468 -0.004,-5.438181 0.001,-1.865499 -0.004,-3.730998 -0.0125,-5.59648 -0.007,-1.605826 -0.01,-3.211671 -0.009,-4.817578 4.8e-4,-0.957197 -10e-4,-1.91442 -0.007,-2.871679 -0.005,-0.90077 -0.005,-1.801364 -2e-5,-2.702135 0.001,-0.328974 -3.7e-4,-0.657958 -0.004,-0.986916 -0.0225,-2.380969 0.32865,-4.079462 1.86151,-5.938926 2.9568,-2.40047 6.12831,-2.60063 9.36739,-0.467163 z"
       fill="#14495c"
       id="path10"
       style="stroke-width:0.233877" />
    <path
       d="m 118.08686,25.759909 c 1.33495,1.393446 2.06207,2.926494 2.06736,4.852839 0.002,0.291105 0.003,0.582208 0.004,0.882132 3e-4,0.323207 5e-4,0.646426 0.001,0.969633 10e-4,0.339961 0.002,0.679916 0.003,1.019869 0.003,0.924238 0.005,1.84846 0.006,2.772718 5e-4,0.577696 10e-4,1.155421 0.002,1.733164 0.003,1.808366 0.005,3.616761 0.007,5.425091 10e-4,2.085928 0.005,4.171758 0.012,6.257601 0.005,1.613161 0.007,3.226251 0.007,4.839511 2.5e-4,0.963023 0.002,1.925886 0.006,2.888923 0.004,0.906686 0.005,1.813282 0.002,2.719948 -1.8e-4,0.331805 10e-4,0.663615 0.003,0.995415 0.0165,2.493096 -0.1665,4.346974 -1.94756,6.215621 -1.68589,1.49922 -3.46247,1.828254 -5.66892,1.707013 -1.98057,-0.244596 -3.24892,-1.116776 -4.53732,-2.59761 -1.16972,-1.86598 -1.15092,-3.646167 -1.14577,-5.788722 -0.001,-0.339296 -0.003,-0.678722 -0.006,-1.018073 -0.005,-0.917477 -0.006,-1.834864 -0.005,-2.752325 3e-5,-0.76791 -0.002,-1.5358 -0.004,-2.30369 -0.005,-1.812764 -0.005,-3.625468 -0.004,-5.438181 0.001,-1.865499 -0.004,-3.730998 -0.0125,-5.59648 -0.007,-1.605826 -0.01,-3.211671 -0.009,-4.817578 4.9e-4,-0.957197 -10e-4,-1.91442 -0.007,-2.871679 -0.005,-0.90077 -0.005,-1.801364 -2e-5,-2.702135 0.001,-0.328974 -3.7e-4,-0.657958 -0.004,-0.986916 -0.0225,-2.380969 0.32865,-4.079462 1.86151,-5.938926 2.9568,-2.40047 6.1283,-2.60063 9.36738,-0.467163 z"
       fill="#14495d"
       id="path11"
       style="stroke-width:0.233877" />
    <path
       d="m 152.57053,42.767317 c 1.52817,0.911 2.61728,2.130777 3.22999,3.807761 0.34435,1.43677 0.2563,2.94742 0.2526,4.417687 0.001,0.369346 0.002,0.738703 0.004,1.108089 0.002,0.771747 0.001,1.543485 -0.001,2.315158 -0.002,0.98443 0.002,1.968536 0.009,2.952836 0.005,0.762148 0.004,1.524237 0.003,2.286305 -3e-5,0.362643 0.001,0.725449 0.005,1.088137 0.018,2.582159 -0.2016,4.70043 -2.04156,6.649233 -1.66613,1.455933 -3.44909,1.765339 -5.60853,1.646864 -1.98058,-0.244596 -3.24893,-1.116776 -4.53733,-2.59761 -1.23769,-1.974512 -1.15092,-3.963273 -1.14073,-6.214464 -4.8e-4,-0.369855 -0.001,-0.739844 -0.002,-1.109789 -0.001,-0.772694 4.6e-4,-1.545424 0.004,-2.318144 0.004,-0.986403 0.001,-1.972772 -0.002,-2.959245 -0.002,-0.763026 -0.001,-1.526111 9e-5,-2.289196 4.6e-4,-0.36352 -1e-4,-0.727059 -0.001,-1.090644 -0.009,-2.589893 0.0891,-4.605237 1.95642,-6.564275 2.13188,-1.895941 5.25422,-2.301001 7.87263,-1.128703 z"
       fill="#14485c"
       id="path12"
       style="stroke-width:0.233877" />
    <path
       d="m 10.020764,43.285527 c 1.318636,1.009641 2.08899,2.361146 2.609877,3.919767 0.02575,0.529624 0.03725,1.059869 0.04145,1.590009 0.0023,0.241147 0.0023,0.241147 0.0046,0.487167 0.0046,0.532094 0.0074,1.06418 0.0097,1.596236 9.5e-4,0.182268 0.0019,0.364542 0.0029,0.552387 0.0049,0.965589 0.0082,1.931259 0.01045,2.896928 0.0026,0.993506 0.01065,1.986887 0.01995,2.980388 0.0061,0.767028 0.0081,1.534176 0.0089,2.301293 0.0012,0.365952 0.0038,0.731979 0.0082,1.097836 0.02885,2.579781 -0.1728,4.720841 -2.027244,6.684985 C 9.0434151,68.848456 7.2604506,69.157862 5.1010101,69.039387 3.1105293,68.79348 1.8447263,67.91958 0.5636853,66.418969 -0.28385523,65.12291 -0.57181149,64.065033 -0.58208074,62.521253 c -0.001984,-0.165097 -0.003967,-0.33009 -0.00601,-0.500167 -0.00544,-0.541083 -0.005715,-1.082036 -0.005425,-1.623173 -0.001665,-0.379599 -0.003468,-0.759253 -0.005405,-1.138787 -0.003142,-0.794181 -0.00352,-1.588363 -0.002144,-2.382485 0.001378,-1.012372 -0.005775,-2.024499 -0.01525,-3.036835 -0.006085,-0.78375 -0.00673,-1.56739 -0.00588,-2.351215 -3.9375e-4,-0.37292 -0.00263,-0.74586 -0.006825,-1.118775 -0.023725,-2.369616 0.078107,-4.403553 1.77859234,-6.23074 2.3980052,-2.278407 6.0433595,-2.706085 8.8711414,-0.853549 z"
       fill="#14495c"
       id="path13"
       style="stroke-width:0.233877" />
    <path
       d="m 295.87681,42.767317 c 1.67111,0.981772 2.78475,2.369186 3.39568,4.20444 0.0892,0.831403 0.0892,0.831403 0.0909,1.721207 0.001,0.163545 0.002,0.327171 0.004,0.495622 0.003,0.535758 10e-4,1.071313 -0.002,1.607073 4.7e-4,0.375467 0.001,0.751018 0.002,1.126485 10e-4,0.785121 -4.6e-4,1.570166 -0.003,2.355377 -0.004,1.002378 -0.002,2.004696 0.002,3.006984 0.002,0.774973 10e-4,1.54992 -9e-5,2.324833 -4.7e-4,0.369436 9e-5,0.738852 10e-4,1.108223 0.009,2.583619 -0.0772,4.640117 -1.95551,6.614813 -1.6833,1.494127 -3.29688,1.762617 -5.51889,1.677865 -1.78217,-0.178934 -3.13625,-0.839563 -4.33058,-2.184298 -1.0417,-1.546526 -1.42964,-2.76017 -1.45399,-4.620578 -0.002,-0.157262 -0.005,-0.314664 -0.007,-0.476876 -0.007,-0.519835 -0.012,-1.039765 -0.0165,-1.559555 -0.002,-0.178624 -0.003,-0.357184 -0.005,-0.541257 -0.007,-0.946769 -0.0135,-1.893593 -0.018,-2.840262 -0.004,-0.77892 -0.0125,-1.557611 -0.024,-2.336481 -0.014,-0.944596 -0.0215,-1.889092 -0.0235,-2.833862 -0.002,-0.357549 -0.007,-0.715147 -0.0135,-1.072681 -0.042,-2.302155 0.181,-4.196579 1.56082,-6.141981 2.20301,-2.171623 5.39552,-2.960858 8.31355,-1.635091 z"
       fill="#14485c"
       id="path14"
       style="stroke-width:0.233877" />
    <path
       d="m 292.01277,149.51266 c 0.61824,0 1.23649,0 1.87347,0 0.61825,1.61868 1.2365,3.23736 1.87348,4.90513 0.75511,-1.87605 0.75511,-1.87605 1.46365,-3.76645 0.0785,-0.21738 0.157,-0.43477 0.23785,-0.65874 0.0567,-0.15841 0.1135,-0.31677 0.17195,-0.47994 0.54097,0 1.08194,0 1.6393,0 0,2.38942 0,4.77898 0,7.24094 -0.3864,0 -0.77281,0 -1.17093,0 -0.0773,-1.31041 -0.15455,-2.6208 -0.2342,-3.97089 -0.4526,1.21917 -0.4526,1.21917 -0.90374,2.43887 -0.47535,1.27243 -0.47535,1.27243 -0.73555,1.53202 -0.3864,0 -0.7728,0 -1.17092,0 -0.4637,-1.31041 -0.92737,-2.6208 -1.40511,-3.97089 -0.0773,1.31041 -0.15455,2.62073 -0.2342,3.97089 -0.4637,0 -0.92737,0 -1.4051,0 0,-2.38952 0,-4.77907 0,-7.24094 z"
       fill="#c4122d"
       id="path15"
       style="stroke-width:0.233877" />
    <path
       d="m 285.92397,149.51266 c 1.93202,0 3.86404,0 5.85461,0 0,0.38539 0,0.77072 0,1.16787 -0.7728,0 -1.54561,0 -2.34184,0 0,2.00406 0,4.00821 0,6.07307 -0.3864,0 -0.77281,0 -1.17092,0 0,-2.00412 0,-4.00824 0,-6.07307 -0.77281,0 -1.54562,0 -2.34185,0 0,-0.38538 0,-0.77082 0,-1.16787 z"
       fill="#c3112e"
       id="path16"
       style="stroke-width:0.233877" />
  </g>
</svg>
