<?xml version="1.0" encoding="UTF-8" standalone="no"?>
<svg
   version="1.1"
   width="383"
   height="102"
   id="svg62"
   sodipodi:docname="clients3.svg"
   inkscape:version="1.3.2 (091e20e, 2023-11-25, custom)"
   xmlns:inkscape="http://www.inkscape.org/namespaces/inkscape"
   xmlns:sodipodi="http://sodipodi.sourceforge.net/DTD/sodipodi-0.dtd"
   xmlns="http://www.w3.org/2000/svg"
   xmlns:svg="http://www.w3.org/2000/svg">
  <defs
     id="defs62" />
  <sodipodi:namedview
     id="namedview62"
     pagecolor="#505050"
     bordercolor="#eeeeee"
     borderopacity="1"
     inkscape:showpageshadow="0"
     inkscape:pageopacity="0"
     inkscape:pagecheckerboard="0"
     inkscape:deskcolor="#505050"
     inkscape:zoom="1.8966667"
     inkscape:cx="173.98946"
     inkscape:cy="-70.386643"
     inkscape:window-width="1920"
     inkscape:window-height="1057"
     inkscape:window-x="-8"
     inkscape:window-y="-8"
     inkscape:window-maximized="1"
     inkscape:current-layer="svg62" />
  <path
     d="m 43.153844,6.538461 c 1.294616,0 2.589231,0 3.923077,0 0.750136,0.793964 1.500271,1.587927 2.273137,2.40595 3.703712,3.537395 7.603362,4.63223 12.35667,6.175781 9.088601,3.237772 13.907934,7.562266 19.462139,15.6259 2.701339,3.483305 5.176046,5.166827 9.061899,7.176983 -0.683511,3.612842 -1.449833,6.964884 -2.615384,10.461538 -0.04854,2.35127 -0.09408,4.702703 -0.114296,7.054388 -0.183492,10.275511 -1.855987,16.623824 -8.094538,25.091349 -3.08283,4.32714 -4.561235,8.5899 -6.175782,13.62349 -0.947362,-0.0304 -1.894723,-0.0607 -2.870792,-0.092 -7.191568,-0.13424 -12.534135,0.38364 -19.359976,2.70733 -8.057585,0.70066 -14.475859,-0.3997 -22.230768,-2.61538 -4.36904,-0.21878 -8.706516,-0.15828 -13.076923,0 C 15.449567,92.48158 15.206826,90.80936 14.95673,89.08648 13.49146,82.27734 10.1411,77.61228 5.9612378,72.137618 2.3709885,67.152659 2.3211246,62.542231 1.9615384,56.55769 1.5520571,50.278976 1.0340715,44.127505 0,37.923075 6.211538,33.999999 6.211538,33.999999 9.153846,33.999999 9.526385,33.241436 9.898924,32.482872 10.282753,31.701321 16.24019,19.950225 22.724525,16.37264 34.832631,12.193208 38.871055,10.603167 40.338164,9.586547 43.153844,6.538461 Z"
     fill="#262018"
     id="path1"
     style="stroke-width:1.3077" />
  <path
     d="m 45.769229,26.153846 c 1.294616,-0.431539 2.58923,-0.863077 3.923076,-1.307693 9.564048,0.382562 17.268338,4.547974 24.274039,10.870191 0.620336,0.728222 1.240673,1.456443 1.879807,2.206731 -1.294615,0.863077 -2.589231,1.726154 -3.923077,2.615384 -0.863077,-0.431537 -1.726154,-0.863076 -2.615384,-1.307692 0.863077,1.051876 1.726154,2.10375 2.615384,3.187501 2.950314,4.473056 3.454898,8.264386 3.213041,13.567307 -1.05044,5.027748 -3.355454,7.269764 -7.136118,10.70673 -3.024038,1.144231 -3.024038,1.144231 -5.230769,1.307692 0.431539,-2.157691 0.863077,-4.315384 1.307693,-6.538461 -1.512071,0.02276 -1.512071,0.02276 -3.054687,0.04597 -1.967209,0.0177 -1.967209,0.0177 -3.974159,0.03576 -1.304729,0.01517 -2.60946,0.03034 -3.953726,0.04597 -3.402044,-0.127704 -3.402044,-0.127704 -6.017428,-1.435396 -0.431538,3.452307 -0.863077,6.904615 -1.307692,10.461538 -0.863077,0 -1.726154,0 -2.615385,0 0,-2.589231 0,-5.178462 0,-7.846154 -6.041537,0 -12.083076,0 -18.307691,0 0.863077,1.726154 1.726154,3.452308 2.615385,5.230769 -5.789928,-1.769144 -8.733698,-3.869769 -11.769231,-9.153846 -1.232259,-5.518833 -1.072338,-9.897285 1.767428,-14.854567 1.92593,-2.573991 3.908656,-5.005917 6.078726,-7.376201 -3.236538,1.941927 -3.236538,1.941927 -6.538461,3.92308 -0.863077,-1.294614 -1.726154,-2.589229 -2.615385,-3.923076 1.849969,-1.257031 3.70317,-2.509308 5.557692,-3.759615 1.031647,-0.697879 2.063293,-1.395757 3.126202,-2.114783 7.643093,-4.884494 13.70726,-6.531672 22.70072,-4.587139 z"
     fill="#2a2419"
     id="path2"
     style="stroke-width:1.3077" />
  <path
     d="m 43.153844,6.538461 c 1.294616,0 2.589231,0 3.923077,0 0.750136,0.793964 1.500271,1.587927 2.273137,2.40595 3.703712,3.537395 7.603362,4.63223 12.35667,6.175781 9.088601,3.237772 13.907934,7.562266 19.462139,15.6259 2.701339,3.483305 5.176046,5.166827 9.061899,7.176983 -0.683511,3.612842 -1.449833,6.964884 -2.615384,10.461538 -0.04854,2.35127 -0.09408,4.702703 -0.114296,7.054388 -0.183492,10.275511 -1.855987,16.623824 -8.094538,25.091349 -3.08283,4.32714 -4.561235,8.5899 -6.175782,13.62349 -0.947362,-0.0304 -1.894723,-0.0607 -2.870792,-0.092 -7.191568,-0.13424 -12.534135,0.38364 -19.359976,2.70733 -8.057585,0.70066 -14.475859,-0.3997 -22.230768,-2.61538 -4.36904,-0.21878 -8.706516,-0.15828 -13.076923,0 C 15.449567,92.48158 15.206826,90.80936 14.95673,89.08648 13.49146,82.27734 10.1411,77.61228 5.9612378,72.137618 2.3709885,67.152659 2.3211246,62.542231 1.9615384,56.55769 1.5520571,50.278976 1.0340715,44.127505 0,37.923075 6.211538,33.999999 6.211538,33.999999 9.153846,33.999999 9.526385,33.241436 9.898924,32.482872 10.282753,31.701321 16.24019,19.950225 22.724525,16.37264 34.832631,12.193208 38.871055,10.603167 40.338164,9.586547 43.153844,6.538461 Z m 1.307692,3.923077 c -0.633821,0.426481 -1.267644,0.852963 -1.920673,1.292368 -4.568608,2.97838 -8.822141,5.49586 -14.016826,7.207632 -6.259797,2.204326 -9.534914,6.196338 -13.817607,11.156249 -1.211173,1.395758 -1.211173,1.395758 -2.446815,2.819712 -0.745078,0.881619 -1.490156,1.763239 -2.257813,2.671574 -2.155648,2.314002 -2.155648,2.314002 -6.0787253,4.929386 0.2140836,0.675966 0.4281671,1.35193 0.648738,2.048379 0.8519234,4.114327 0.7098277,8.053494 0.7406851,12.254505 C 5.6607969,64.663565 8.932504,70.771928 14.502103,78.71694 17,82.38461 17,82.38461 18.108473,85.98587 c 1.305729,3.3413 1.305729,3.3413 5.307391,4.4339 17.310682,3.43004 17.310682,3.43004 34.122595,-0.18901 2.179485,-0.003 4.358977,-0.003 6.538462,0 3.439555,-0.13055 3.439555,-0.13055 6.538461,-1.30768 2.426251,-3.11194 3.747309,-6.09879 5.20012,-9.76173 1.338341,-3.315199 1.338341,-3.315199 4.280649,-6.911353 3.198835,-5.940693 3.025973,-11.482931 3.315204,-18.149338 0.314924,-4.94144 1.240884,-8.926939 2.896334,-13.5622 -0.584937,-0.460194 -1.169873,-0.92039 -1.772536,-1.39453 C 80.327069,35.707476 76.876412,32.566176 73.966344,27.951922 68.868554,20.388534 60.235793,18.284923 52.0012,15.334735 49.101743,14.141595 46.814602,12.52047 44.461536,10.461538 Z"
     fill="#878827"
     id="path3"
     style="stroke-width:1.3077" />
  <path
     d="m 137.30769,2.615385 c 3.4523,0 6.90461,0 10.46154,0 2.15768,5.178461 4.31538,10.356922 6.53846,15.692307 2.15768,-5.178462 4.31538,-10.356923 6.53846,-15.692307 3.02076,0 6.04154,0 9.15385,0 0,9.493845 0,18.987691 0,28.76923 -2.58924,0 -5.17847,0 -7.84616,0 -0.64731,-3.236539 -0.64731,-3.236539 -1.30769,-6.538462 -1.29461,3.236539 -1.29461,3.236539 -2.61539,6.538462 -2.58922,0 -5.17846,0 -7.84615,0 -0.86308,-1.726154 -1.72615,-3.452308 -2.61538,-5.230769 -0.43154,1.726153 -0.86308,3.452306 -1.3077,5.230769 -3.02077,0 -6.04153,0 -9.15384,0 0,-9.493847 0,-18.987692 0,-28.76923 z"
     fill="#353334"
     id="path4"
     style="stroke-width:1.3077" />
  <path
     d="m 113.76923,70.615382 c 3.02077,0 6.04153,0 9.15384,0 2.58923,5.178462 5.17847,10.356918 7.84616,15.692308 2.15769,-5.17846 4.31538,-10.356924 6.53846,-15.692308 3.02076,0 6.04153,0 9.15384,0 0,9.493848 0,18.987688 0,28.769228 -2.58923,0 -5.17845,0 -7.84616,0 -0.43153,-2.58923 -0.86306,-5.17846 -1.30768,-7.84615 -0.86308,2.58923 -1.72616,5.17846 -2.61538,7.84615 -2.58924,0 -5.17847,0 -7.84616,0 -1.29462,-2.58923 -2.58924,-5.17846 -3.92308,-7.84615 -0.43154,2.58923 -0.86308,5.17846 -1.30769,7.84615 -2.58923,0 -5.17846,0 -7.84615,0 0,-9.49384 0,-18.98769 0,-28.769228 z"
     fill="#363334"
     id="path5"
     style="stroke-width:1.3077" />
  <path
     d="m 47.076921,58.846151 c 1.75233,0.399315 3.494555,0.843287 5.230769,1.307693 2.066481,0.277127 4.137519,0.522075 6.211538,0.735577 1.045133,0.109568 2.090265,0.219141 3.167068,0.33203 1.183359,0.118843 1.183359,0.118843 2.390625,0.240085 0.829008,5.284923 1.469904,10.339309 1.307692,15.692304 -3.020769,0.43154 -6.041539,0.86308 -9.153846,1.3077 0,0.86307 0,1.72615 0,2.61538 -4.072013,2.37534 -7.071708,2.97095 -11.769231,2.94231 -1.658725,0.0102 -1.658725,0.0102 -3.35096,0.0204 -3.363762,-0.36657 -5.515599,-1.26952 -8.418269,-2.96274 0,-0.86308 0,-1.72616 0,-2.61539 -3.883847,-0.6473 -3.883847,-0.6473 -7.846154,-1.30769 0.215769,-1.240672 0.431538,-2.481345 0.653846,-3.759615 0.741562,-4.634762 0.834033,-6.161364 -0.653846,-10.624999 6.041538,0 12.083076,0 18.307691,0 0,2.589231 0,5.178462 0,7.846154 0.863077,0 1.726154,0 2.615385,0 -0.02697,-1.699183 -0.05394,-3.398365 -0.08173,-5.149038 -0.02811,-1.770821 -0.01174,-3.543927 0.08173,-5.312501 0.431539,-0.431538 0.863077,-0.863077 1.307692,-1.307692 z"
     fill="#26211a"
     id="path6"
     style="stroke-width:1.3077" />
  <path
     d="m 44.461536,32.692307 c 0.863077,0.431538 1.726154,0.863076 2.615385,1.307692 0,2.58923 0,5.178461 0,7.846153 3.894982,-0.127704 3.894982,-0.127704 7.789964,-0.255408 2.671574,0.255408 2.671574,0.255408 6.594651,2.870792 0.955228,2.646034 0.955228,2.646034 1.552884,5.721155 0.207341,1.008047 0.414682,2.016093 0.628306,3.054687 0.434195,2.993389 0.434195,2.993389 0.434195,8.224158 -2.342842,0.03526 -4.685834,0.06065 -7.028846,0.08173 -1.304729,0.01517 -2.60946,0.03034 -3.953726,0.04597 -3.402044,-0.127704 -3.402044,-0.127704 -6.017428,-1.435396 -0.431538,3.452307 -0.863077,6.904615 -1.307692,10.461538 -0.431538,0 -0.863077,0 -1.307693,0 0,-3.452308 0,-6.904616 0,-10.461538 -1.294615,0.431539 -2.589229,0.863077 -3.923077,1.307692 -2.477694,0.08964 -4.958355,0.110892 -7.437499,0.08173 -1.299672,-0.0118 -2.599344,-0.0236 -3.9384,-0.03576 -1.489315,-0.02276 -1.489315,-0.02276 -3.008714,-0.04597 0.36814,-2.780635 0.752619,-5.559111 1.14423,-8.336538 0.212398,-1.54747 0.424796,-3.094939 0.64363,-4.689303 0.827524,-3.974159 0.827524,-3.974159 3.442909,-6.589543 2.829927,-0.255408 2.829927,-0.255408 6.048076,-0.163461 1.603097,0.0354 1.603097,0.0354 3.238581,0.07152 1.228874,0.04552 1.228874,0.04552 2.482572,0.09195 -0.02697,-1.267644 -0.05394,-2.535288 -0.08173,-3.841346 C 43.153844,34 43.153844,34 44.461535,32.692308 Z"
     fill="#c9c6c8"
     id="path7"
     style="stroke-width:1.3077" />
  <path
     d="m 206.61538,36.615383 c 2.58923,0 5.17846,0 7.84615,0 2.48258,2.57452 2.48258,2.57452 4.41346,5.884615 0.65743,1.092332 1.31485,2.184664 1.99219,3.310096 0.47537,0.849592 0.95074,1.699183 1.44051,2.574519 0.43154,-3.883846 0.86308,-7.767691 1.30768,-11.76923 3.02078,0 6.04155,0 9.15385,0 0,9.493846 0,18.987691 0,28.76923 -9.15385,0 -9.15385,0 -11.76412,-2.574519 -0.62202,-1.092332 -1.24404,-2.184664 -1.88491,-3.310096 -0.64563,-1.092332 -1.29125,-2.184663 -1.95643,-3.310097 -0.4602,-0.849591 -0.9204,-1.699182 -1.39453,-2.574519 -0.43154,3.883847 -0.86308,7.767693 -1.3077,11.769231 -2.58924,0 -5.17846,0 -7.84615,0 0,-9.493846 0,-18.987692 0,-28.76923 z"
     fill="#fbef10"
     id="path8"
     style="stroke-width:1.3077" />
  <path
     d="m 176.53846,70.615382 c 3.02076,0 6.04153,0 9.15384,0 2.61028,2.860576 2.61028,2.860576 4.4952,6.538458 0.96842,1.82056 0.96842,1.82056 1.95642,3.67789 0.4602,0.94399 0.92039,1.88798 1.39454,2.86057 0.43153,-4.31538 0.86307,-8.630765 1.30768,-13.076918 2.58924,0 5.17846,0 7.84616,0 0,9.493848 0,18.987688 0,28.769228 -3.02077,0 -6.04154,0 -9.15384,0 -2.61028,-2.86058 -2.61028,-2.86058 -4.4952,-6.53847 -0.64562,-1.21369 -1.29125,-2.42739 -1.95643,-3.67787 -0.4602,-0.944 -0.92038,-1.88799 -1.39453,-2.86058 -0.43154,4.31538 -0.86308,8.63076 -1.3077,13.07692 -2.58922,0 -5.17845,0 -7.84614,0 0,-9.49384 0,-18.98769 0,-28.769228 z"
     fill="#353334"
     id="path9"
     style="stroke-width:1.3077" />
  <path
     d="m 228.76442,72.168266 c 3.26273,2.867258 3.65949,4.649794 4.0048,8.908654 -5.45702,0.107 -10.37206,-0.0916 -15.69231,-1.30769 -0.86308,0 -1.72614,0 -2.61538,0 -0.21809,4.46781 -0.21809,4.46781 0,9.15385 2.39654,2.96636 2.39654,2.96636 5.96634,2.86057 3.11806,0.10797 3.11806,0.10797 4.4952,-1.55289 -3.88385,-0.64731 -3.88385,-0.64731 -7.84616,-1.30768 0,-1.72616 0,-3.45231 0,-5.23078 5.61001,0 11.22001,0 17,0 0,7.84616 0,7.84616 -2.20672,11.44231 -4.92341,4.79034 -7.91179,5.55769 -14.79328,5.55769 -4.41301,-0.7355 -5.48625,-1.5206 -9.15384,-4.57692 -3.10722,-4.3564 -3.4035,-8.32775 -3.08534,-13.57752 0.83697,-4.93089 2.6799,-7.974658 6.59976,-11.02344 6.15278,-1.829205 11.46741,-1.71489 17.32693,0.653846 z"
     fill="#343132"
     id="path10"
     style="stroke-width:1.3077" />
  <path
     d="m 274.61538,70.615382 c 16.99999,0 16.99999,0 22.23076,3.923077 3.17516,4.404241 4.25556,7.818861 3.92308,13.158651 -0.70778,3.65103 -1.64014,5.74005 -3.51442,9.07211 -7.20522,4.35033 -14.35742,3.0024 -22.63942,2.61539 0,-9.49384 0,-18.98769 0,-28.769228 z m 7.84615,7.846158 c 0,4.74692 0,9.49384 0,14.3846 4.99294,-0.36013 4.99294,-0.36013 9.15384,-2.61538 0.32698,-4.52227 0.32698,-4.52227 0,-9.15384 -0.86308,-0.86308 -1.72615,-1.72615 -2.61538,-2.61538 -2.1577,0 -4.31538,0 -6.53846,0 z"
     fill="#353333"
     id="path11"
     style="stroke-width:1.3077" />
  <path
     d="m 321.69229,36.615383 c 3.02078,0 6.04154,0 9.15385,0 0.43154,2.589231 0.86308,5.178461 1.30769,7.846153 0.64731,-1.294615 1.29462,-2.589229 1.96154,-3.923077 3.26923,-3.923076 3.26923,-3.923076 5.94591,-4.44411 2.88102,0.03064 2.88102,0.03064 7.78486,0.521034 -2.69394,4.714406 -5.69018,8.896636 -9.15384,13.076922 1.94596,6.0148 5.08611,9.67461 9.15384,14.384616 0,0.431539 0,0.863076 0,1.307692 -6.91112,0.575927 -6.91112,0.575927 -10.46154,0 -3.26923,-3.269231 -3.26923,-3.269231 -5.23077,-6.538462 -0.43153,2.157693 -0.86307,4.315385 -1.30769,6.538462 -3.02076,0 -6.04154,0 -9.15385,0 0,-9.493846 0,-18.987692 0,-28.76923 z"
     fill="#f8ed0f"
     id="path12"
     style="stroke-width:1.3077" />
  <path
     d="m 99.38461,0 c 1.72615,0 3.45231,0 5.23077,0 0,33.659999 0,67.319997 0,102 -1.72615,0 -3.45231,0 -5.23077,0 0,-33.660002 0,-67.320001 0,-102 z"
     fill="#353334"
     id="path13"
     style="stroke-width:1.3077" />
  <path
     d="m 349.15384,36.615383 c 16.76163,-0.552581 16.76163,-0.552581 22.23076,3.923076 1.15957,4.369984 0.72486,9.011806 -1.30769,13.076923 -0.86308,0 -1.72616,0 -2.61539,0 1.72616,3.883847 3.45232,7.767693 5.23077,11.769231 -3.4523,0 -6.90462,0 -10.46153,0 -1.29462,-2.589231 -2.58924,-5.178462 -3.92308,-7.846154 -0.43154,2.589231 -0.86308,5.178462 -1.3077,7.846154 -2.58922,0 -5.17845,0 -7.84614,0 0,-9.493846 0,-18.987692 0,-28.76923 z m 7.84614,7.846153 c 0,1.726154 0,3.452308 0,5.230769 2.1577,-0.431537 4.31539,-0.863077 6.53846,-1.307692 0,-1.294615 0,-2.589231 0,-3.923077 -2.15768,0 -4.31537,0 -6.53846,0 z"
     fill="#fbef11"
     id="path14"
     style="stroke-width:1.3077" />
  <path
     d="m 235.38461,36.615383 c 2.58922,0 5.17846,0 7.84615,0 0.43154,6.473077 0.86308,12.946154 1.30769,19.615384 1.72616,0.431539 3.4523,0.863077 5.23077,1.307692 0.43154,-6.904614 0.86308,-13.80923 1.3077,-20.923076 3.02076,0 6.04153,0 9.15384,0 0.071,3.133416 0.12265,6.265205 0.16346,9.399039 0.0219,0.880777 0.0438,1.761552 0.0664,2.669019 0.0517,5.298587 -0.35667,9.376485 -2.84525,14.085787 -2.97468,2.624707 -5.11853,3.827098 -9.10787,4.096755 -4.89423,-0.309877 -7.05105,-0.722773 -10.8089,-4.112079 -3.13856,-5.300205 -2.90365,-9.404325 -2.64092,-15.43179 0.0236,-1.030804 0.0473,-2.061608 0.0716,-3.123649 0.0613,-2.528384 0.1551,-5.055944 0.25541,-7.583082 z"
     fill="#f9ee10"
     id="path15"
     style="stroke-width:1.3077" />
  <path
     d="m 125.53845,36.615383 c 2.58924,0 5.17847,0 7.84616,0 0,3.883846 0,7.767692 0,11.76923 3.02077,0 6.04154,0 9.15384,0 0,-3.883846 0,-7.767691 0,-11.76923 2.58924,0 5.17847,0 7.84616,0 0,9.493846 0,18.987691 0,28.76923 -2.58923,0 -5.17847,0 -7.84616,0 0,-3.452308 0,-6.904616 0,-10.461538 -3.02076,0 -6.04153,0 -9.15384,0 0,3.452307 0,6.904615 0,10.461538 -2.58923,0 -5.17846,0 -7.84616,0 0,-9.493846 0,-18.987692 0,-28.76923 z"
     fill="#fef111"
     id="path16"
     style="stroke-width:1.3077" />
  <path
     d="m 235.38461,70.615382 c 2.58922,0 5.17846,0 7.84615,0 0.43154,3.020769 0.86308,6.041538 1.30769,9.153848 0.3658,-0.6608 0.7316,-1.32159 1.10848,-2.00241 1.65218,-2.677476 3.18788,-4.937086 5.42999,-7.151438 4.98557,-0.572115 4.98557,-0.572115 9.15384,0 -1.79117,5.224238 -4.25944,8.892428 -7.84616,13.076918 2.03611,6.10832 5.34124,10.57539 9.15386,15.69231 -9.29762,0.94552 -9.29762,0.94552 -12.61208,-1.74699 -1.77254,-2.17608 -1.77254,-2.17608 -4.38793,-6.09916 -0.43154,2.58923 -0.86307,5.17846 -1.30769,7.84615 -2.58923,0 -5.17846,0 -7.84615,0 0,-9.49384 0,-18.98769 0,-28.769228 z"
     fill="#353233"
     id="path17"
     style="stroke-width:1.3077" />
  <path
     d="m 173.92308,2.615385 c 2.58922,0 5.17845,0 7.84614,0 0.43154,2.58923 0.86308,5.178461 1.3077,7.846153 0.89005,-1.294616 1.78009,-2.589231 2.69711,-3.923077 1.77764,-2.176082 1.77764,-2.176082 3.84135,-3.923076 4.98557,-0.490386 4.98557,-0.490386 9.15384,0 -2.32697,5.288577 -5.74769,9.75641 -9.15384,14.384615 0.82683,1.064517 0.82683,1.064517 1.67037,2.15054 0.71643,0.935562 1.43284,1.871124 2.17098,2.835036 0.71305,0.925448 1.4261,1.850896 2.16075,2.804387 1.84405,2.671575 1.84405,2.671575 3.15174,6.594652 -6.91111,0.575926 -6.91111,0.575926 -10.46154,0 -3.26923,-3.269231 -3.26923,-3.269231 -5.23076,-6.538462 -0.43154,2.157692 -0.86308,4.315384 -1.3077,6.538462 -2.58923,0 -5.17845,0 -7.84614,0 0,-9.493847 0,-18.987692 0,-28.76923 z"
     fill="#353233"
     id="path18"
     style="stroke-width:1.3077" />
  <path
     d="m 149.07692,70.615382 c 2.58923,0 5.17846,0 7.84615,0 0.0792,1.291244 0.15846,2.582488 0.24008,3.912861 0.10957,1.675587 0.21915,3.351167 0.33204,5.077527 0.10615,1.66884 0.21239,3.33768 0.32181,5.05709 0.14185,4.10722 0.14185,4.10722 1.72146,6.8756 1.72615,-0.43154 3.45231,-0.86308 5.23076,-1.3077 0.43154,-6.47307 0.86308,-12.94615 1.3077,-19.615378 2.58923,0 5.17845,0 7.84616,0 0.1417,3.570313 0.24514,7.134958 0.32691,10.706728 0.0657,1.50828 0.0657,1.50828 0.13282,3.04703 0.0886,5.15653 -0.0872,7.84792 -2.77375,12.38477 -3.75826,3.38967 -5.91581,3.79826 -10.80888,4.11718 -3.93284,-0.27365 -6.13905,-1.56963 -9.10788,-4.10187 -3.46222,-4.91682 -2.91114,-10.25936 -2.77885,-16.01922 0.0118,-0.97434 0.0236,-1.94867 0.0357,-2.95253 0.0307,-2.394209 0.0776,-4.788204 0.1277,-7.182088 z"
     fill="#363334"
     id="path19"
     style="stroke-width:1.3077" />
  <path
     d="m 185.6923,36.615383 c 3.02077,0 6.04154,0 9.15384,0 1.50362,3.812063 3.00005,7.626912 4.4952,11.442307 0.63845,1.618269 0.63845,1.618269 1.28981,3.269231 0.40878,1.045132 0.81757,2.090265 1.23873,3.167067 0.37665,0.958741 0.7533,1.917481 1.14136,2.905274 0.94775,2.640356 1.66744,5.25338 2.29645,7.985351 -3.02078,0 -6.04154,0 -9.15385,0 -0.43154,-0.863077 -0.86308,-1.726154 -1.3077,-2.615385 -3.02077,0 -6.04153,0 -9.15384,0 -0.43154,0.863077 -0.86308,1.726154 -1.3077,2.615385 -3.02076,0 -6.04153,0 -9.15384,0 3.45231,-9.493846 6.90461,-18.987692 10.46154,-28.76923 z m 3.92308,10.461538 c -0.43154,2.589231 -0.86308,5.178462 -1.3077,7.846154 1.29462,0 2.58924,0 3.92308,0 -0.43154,-2.589231 -0.86308,-5.178461 -1.30769,-7.846154 -0.43154,0 -0.86308,0 -1.30769,0 z"
     fill="#faee11"
     id="path20"
     style="stroke-width:1.3077" />
  <path
     d="m 166.11268,36.007511 c 4.37455,1.030835 6.47789,3.681078 9.11808,7.146333 0,0.863077 0,1.726154 0,2.615385 -8.66346,0.326923 -8.66346,0.326923 -13.07692,-2.615385 0,1.294616 0,2.589231 0,3.923077 1.42948,0.350625 2.85894,0.70125 4.33173,1.0625 6.96071,2.241584 6.96071,2.241584 8.74519,5.475961 0,4.576923 0,4.576923 -1.30768,9.153846 -2.98204,2.891669 -4.99939,3.854073 -9.15896,4.040565 -4.3848,-0.31493 -7.21445,-0.837747 -10.45643,-3.877103 -1.3077,-2.778846 -1.3077,-2.778846 -1.3077,-6.701923 7.35578,-0.326923 7.35578,-0.326923 11.76923,2.615384 0,-0.863077 0,-1.726154 0,-2.615384 -0.74002,-0.362424 -1.48004,-0.72485 -2.24248,-1.098257 -0.95916,-0.473681 -1.91833,-0.947362 -2.90655,-1.435397 -1.43369,-0.705464 -1.43369,-0.705464 -2.89634,-1.42518 -2.41616,-1.271935 -2.41616,-1.271935 -3.72386,-2.579628 -0.50636,-4.55728 -0.51506,-7.030635 1.96154,-10.951922 3.75594,-2.441358 6.67892,-2.941854 11.15115,-2.732872 z"
     fill="#f9ee10"
     id="path21"
     style="stroke-width:1.3077" />
  <path
     d="m 129.46153,2.615385 c 3.26923,2.370192 3.26923,2.370192 5.23078,5.230769 0,1.294615 0,2.589231 0,3.923077 -3.02078,0 -6.04155,0 -9.15386,0 0,-0.863077 0,-1.726154 0,-2.615385 -0.86306,0.863077 -1.72614,1.726154 -2.61538,2.615385 1.11003,0.543637 1.11003,0.543637 2.24248,1.098257 0.95917,0.47368 1.91834,0.947361 2.90656,1.435396 1.43368,0.705464 1.43368,0.705464 2.89634,1.42518 C 133.38461,17 133.38461,17 134.69231,18.307692 c 0.59967,8.095597 0.59967,8.095597 -1.38943,11.605768 -4.97807,2.890495 -9.88365,3.131774 -15.44711,2.04327 -2.77885,-1.879808 -2.77885,-1.879808 -3.84135,-5.966347 -0.0809,-1.240673 -0.16183,-2.481346 -0.24519,-3.759614 2.58923,0 5.17845,0 7.84615,0 0,0.863077 0,1.726154 0,2.615384 1.72615,0 3.45231,0 5.23077,0 0,-0.863077 0,-1.726154 0,-2.615384 -1.25164,-0.379282 -1.25164,-0.379282 -2.52855,-0.766227 -1.08053,-0.340511 -2.16106,-0.681021 -3.27433,-1.031851 -1.07716,-0.333767 -2.15433,-0.667535 -3.26413,-1.011417 -2.70222,-1.113582 -2.70222,-1.113582 -4.00991,-3.728967 -0.74473,-8.191916 -0.74473,-8.191916 1.96153,-11.687499 4.64453,-1.973924 8.76376,-2.325828 13.73077,-1.389423 z"
     fill="#343132"
     id="path22"
     style="stroke-width:1.3077" />
  <path
     d="m 288.99999,36.615383 c 6.47307,0 12.94616,0 19.61538,0 0,2.157693 0,4.315384 0,6.538461 -3.4523,0 -6.90461,0 -10.46154,0 0,1.726154 0,3.452308 0,5.230769 2.58923,0 5.17847,0 7.84616,0 0,2.157693 0,4.315385 0,6.538462 -2.58924,0 -5.17846,0 -7.84616,0 0,3.452307 0,6.904615 0,10.461538 -3.02076,0 -6.04153,0 -9.15384,0 0,-9.493846 0,-18.987692 0,-28.76923 z"
     fill="#fcf010"
     id="path23"
     style="stroke-width:1.3077" />
  <path
     d="m 218.38461,2.615385 c 7.76769,0 15.53538,0 23.53846,0 0,2.157691 0,4.315384 0,6.538461 -2.58923,0 -5.17847,0 -7.84616,0 0,7.336153 0,14.672307 0,22.230769 -2.58923,0 -5.17845,0 -7.84615,0 0,-7.336154 0,-14.672308 0,-22.230769 -2.58923,0 -5.17846,0 -7.84615,0 0,-2.157692 0,-4.315385 0,-6.538461 z"
     fill="#353334"
     id="path24"
     style="stroke-width:1.3077" />
  <path
     d="m 22.230769,79.76923 c 0.883305,0.26802 1.766609,0.53605 2.676682,0.8122 1.166502,0.35231 2.333004,0.70462 3.534856,1.06761 1.153016,0.34893 2.306034,0.69787 3.493989,1.05739 10.947712,3.20137 19.867101,2.75631 30.832932,-0.32182 0.863077,0 1.726154,0 2.615385,0 0.431539,-0.86307 0.863077,-1.72615 1.307692,-2.61538 0.647307,1.94192 0.647307,1.94192 1.307692,3.92307 -1.294615,0.86308 -2.589231,1.72616 -3.923076,2.61539 0.863076,0.86307 1.726153,1.72615 2.615384,2.61539 -0.804078,0.17362 -1.608155,0.34725 -2.436599,0.52613 -1.585397,0.34642 -1.585397,0.34642 -3.202824,0.69982 -1.046817,0.22757 -2.093636,0.45514 -3.172175,0.68961 -3.147772,0.69832 -3.147772,0.69832 -6.880709,2.0075 -10.789708,1.1023 -20.953712,-1.39801 -31.384614,-3.92306 0,-1.72616 0,-3.45231 0,-5.23078 0.863077,0 1.726154,0 2.615385,0 0,-1.29461 0,-2.58923 0,-3.92307 z"
     fill="#3b3418"
     id="path25"
     style="stroke-width:1.3077" />
  <path
     d="m 57.538459,41.846152 c 3.923077,2.615384 3.923077,2.615384 4.878305,5.261418 0.197227,1.01479 0.394454,2.029579 0.597656,3.075121 0.207341,1.008047 0.414682,2.016093 0.628306,3.054687 0.434195,2.993389 0.434195,2.993389 0.434195,8.224158 -2.315595,0.03538 -4.631346,0.06071 -6.947116,0.08173 -1.289558,0.01517 -2.579116,0.03034 -3.907752,0.04597 -3.529748,-0.127704 -3.529748,-0.127704 -7.452824,-1.435396 0,-5.61 0,-11.22 0,-17 3.94751,-1.973754 7.418502,-1.536677 11.76923,-1.307692 z"
     fill="#d0cba2"
     id="path26"
     style="stroke-width:1.3077" />
  <path
     d="m 262.84614,36.615383 c 2.58924,0 5.17847,0 7.84616,0 0,7.767692 0,15.535385 0,23.538461 3.02076,0 6.04153,0 9.15384,0 0,1.726154 0,3.452307 0,5.230769 -5.60999,0 -11.22,0 -17,0 0,-9.493846 0,-18.987692 0,-28.76923 z"
     fill="#fef111"
     id="path27"
     style="stroke-width:1.3077" />
  <path
     d="m 65.384613,70.615382 c 0,2.157692 0,4.315385 0,6.538458 -3.020769,0.43154 -6.041539,0.86308 -9.153846,1.3077 0,0.86307 0,1.72615 0,2.61538 -4.072013,2.37534 -7.071708,2.97095 -11.769231,2.94231 -1.658725,0.0102 -1.658725,0.0102 -3.35096,0.0204 -3.363762,-0.36657 -5.515599,-1.26952 -8.418269,-2.96274 0,-0.86308 0,-1.72616 0,-2.61539 -3.883847,-0.6473 -3.883847,-0.6473 -7.846154,-1.30769 0,-1.726153 0,-3.452307 0,-5.230768 3.883846,0 7.767692,0 11.76923,0 0,0.863077 0,1.726154 0,2.615384 3.094176,1.547084 5.057902,1.482334 8.499999,1.471154 1.03839,0.003 2.07678,0.007 3.146636,0.0103 2.815376,-4e-5 2.815376,-4e-5 5.353364,-1.481369 0,-0.863077 0,-1.726154 0,-2.615384 8.826923,-1.307693 8.826923,-1.307693 11.769231,-1.307693 z"
     fill="#beb512"
     id="path28"
     style="stroke-width:1.3077" />
  <path
     d="m 373.99998,36.615383 c 3.02078,0 6.04154,0 9.15385,0 0,9.493846 0,18.987691 0,28.76923 -3.02076,0 -6.04154,0 -9.15385,0 0,-9.493846 0,-18.987692 0,-28.76923 z"
     fill="#faef0e"
     id="path29"
     style="stroke-width:1.3077" />
  <path
     d="m 262.84614,70.615382 c 2.58924,0 5.17847,0 7.84616,0 0,9.493848 0,18.987688 0,28.769228 -2.58923,0 -5.17847,0 -7.84616,0 0,-9.49384 0,-18.98769 0,-28.769228 z"
     fill="#363334"
     id="path30"
     style="stroke-width:1.3077" />
  <path
     d="m 311.23075,36.615383 c 2.58924,0 5.17847,0 7.84616,0 0,9.493846 0,18.987691 0,28.76923 -2.58923,0 -5.17846,0 -7.84616,0 0,-9.493846 0,-18.987692 0,-28.76923 z"
     fill="#fef111"
     id="path31"
     style="stroke-width:1.3077" />
  <path
     d="m 113.76923,36.615383 c 2.58923,0 5.17845,0 7.84615,0 0,9.493846 0,18.987691 0,28.76923 -2.58923,0 -5.17846,0 -7.84615,0 0,-9.493846 0,-18.987692 0,-28.76923 z"
     fill="#fef111"
     id="path32"
     style="stroke-width:1.3077" />
  <path
     d="m 209.23076,2.615385 c 2.58923,0 5.17846,0 7.84615,0 0,9.493845 0,18.987691 0,28.76923 -2.58922,0 -5.17846,0 -7.84615,0 0,-9.493847 0,-18.987692 0,-28.76923 z"
     fill="#363334"
     id="path33"
     style="stroke-width:1.3077" />
  <path
     d="m 62.769228,37.923075 c 5.789927,1.769145 8.733698,3.86977 11.769231,9.153846 1.004866,5.042938 1.141536,9.598956 -1.292368,14.226261 -2.408288,3.09424 -4.58679,5.139657 -8.270132,6.533354 -0.728222,0.05394 -1.456442,0.107879 -2.206731,0.163461 0.647308,-0.997932 1.294616,-1.995865 1.961539,-3.024038 3.28966,-8.087082 3.28966,-15.941764 0,-24.028845 -0.647308,-0.997933 -1.294615,-1.995866 -1.961539,-3.024039 z"
     fill="#ece203"
     id="path34"
     style="stroke-width:1.3077" />
  <path
     d="m 43.153844,9.153846 c 0.863077,0.431538 1.726154,0.863077 2.615385,1.307692 -4.609599,3.988748 -8.891061,6.497982 -14.548076,8.745192 -1.35193,0.54448 -2.703858,1.08896 -4.096755,1.64994 -2.481872,0.951031 -4.98756,1.841306 -7.509014,2.681791 -0.92354,1.716742 -1.787755,3.465787 -2.615384,5.230769 -1.470836,1.869764 -2.999761,3.69497 -4.576923,5.475961 -0.795649,0.90859 -1.591299,1.817181 -2.411058,2.753305 -2.165865,2.232271 -2.165865,2.232271 -4.78125,3.539963 0,2.157693 0,4.315385 0,6.538462 -0.8630768,-0.863077 -1.7261538,-1.726154 -2.6153844,-2.615385 0.2451922,-3.26923 0.2451922,-3.26923 1.3076921,-6.538461 1.2946154,-0.863076 2.5892303,-1.726153 3.9230773,-2.615383 1.285897,-2.22889 2.569578,-4.459165 3.831129,-6.701924 5.412026,-9.480922 5.412026,-9.480922 11.570012,-11.472956 2.751357,-0.632575 5.510115,-1.233795 8.27524,-1.803185 4.848573,-1.210507 7.776503,-3.070521 11.631309,-6.175781 z"
     fill="#a6a41c"
     id="path35"
     style="stroke-width:1.3077" />
  <path
     d="m 24.846153,37.923075 c 0.863077,0.431539 1.726154,0.863077 2.615385,1.307692 -0.890049,1.267645 -1.780097,2.535289 -2.697116,3.841347 -3.345445,5.860461 -2.894088,10.687244 -1.225961,17.08173 1.860304,4.493168 1.860304,4.493168 3.923077,7.846153 C 21.67161,66.230853 18.72784,64.130228 15.692307,58.846151 14.683838,53.785132 14.493761,49.20423 17.076622,44.61989 c 2.301337,-2.83399 4.486623,-5.055361 7.769531,-6.696815 z"
     fill="#f6ec01"
     id="path36"
     style="stroke-width:1.3077" />
  <path
     d="m 43.153844,6.538461 c 1.294616,0 2.589231,0 3.923077,0 0.728221,0.782163 1.456442,1.564328 2.206731,2.370193 4.130513,3.907242 8.110606,4.991997 13.485576,6.783653 0,0.863077 0,1.726154 0,2.615385 1.780096,0.445024 1.780096,0.445024 3.596154,0.899038 4.837001,1.953404 6.576459,4.010046 9.480769,8.254808 -0.431539,0.863077 -0.863077,1.726154 -1.307692,2.615384 -0.755192,-0.94399 -1.510385,-1.887981 -2.288462,-2.860577 -4.497265,-4.574805 -10.182688,-6.323499 -16.100961,-8.505108 -4.10418,-1.828325 -7.092157,-3.890052 -10.379807,-6.942006 0,-0.863077 0,-1.726154 0,-2.615385 -0.633822,0.441652 -1.267644,0.883305 -1.920673,1.338342 -6.281114,4.179357 -11.600863,6.361629 -19.002403,7.815504 2.165909,-4.331819 6.799345,-4.830982 11.186898,-6.410757 3.19732,-1.435219 4.694184,-2.924931 7.120793,-5.358474 z"
     fill="#888a2a"
     id="path37"
     style="stroke-width:1.3077" />
  <path
     d="m 65.384613,79.76923 c 0.863077,0.43154 1.726154,0.86307 2.615384,1.30769 0,0.86308 0,1.72615 0,2.61538 -1.294615,0.86308 -2.589231,1.72616 -3.923076,2.61539 0.863076,0.86307 1.726153,1.72615 2.615384,2.61539 -2.150274,0.47219 -4.302989,0.93329 -6.45673,1.38941 -1.797796,0.38687 -1.797796,0.38687 -3.631911,0.78156 -0.986133,0.14666 -1.972266,0.29331 -2.988282,0.44441 -0.431538,-0.43154 -0.863077,-0.86308 -1.307692,-1.3077 -2.417817,-0.30552 -4.844844,-0.54012 -7.274037,-0.73558 -1.323273,-0.10957 -2.646546,-0.21913 -4.009917,-0.33202 -1.534827,-0.11884 -1.534827,-0.11884 -3.100661,-0.24008 0.431539,-1.29462 0.863077,-2.58924 1.307692,-3.92308 0.822621,0.0303 1.645241,0.0607 2.492789,0.0919 7.557822,0.15935 13.786954,-0.63341 21.045672,-2.70733 0.863077,0 1.726154,0 2.615385,0 0,-0.86308 0,-1.72615 0,-2.61538 z"
     fill="#756d16"
     id="path38"
     style="stroke-width:1.3077" />
  <path
     d="m 50.999998,41.846152 c 2.157693,0 4.315384,0 6.538461,0 -0.431538,1.726154 -0.863077,3.452308 -1.307692,5.230769 0.863077,0 1.726154,0 2.615384,0 -0.431538,3.02077 -0.863077,6.041539 -1.307692,9.153846 -3.020769,0 -6.041537,0 -9.153846,0 0,-3.883846 0,-7.767692 0,-11.769231 0.863077,-0.431538 1.726154,-0.863077 2.615385,-1.307692 0,-0.431538 0,-0.863077 0,-1.307692 z"
     fill="#f0eff0"
     id="path39"
     style="stroke-width:1.3077" />
  <path
     d="m 40.538459,26.153846 c -0.431537,1.294614 -0.863076,2.589229 -1.307692,3.923076 -2.334434,0.679387 -2.334434,0.679387 -5.312499,1.0625 C 26.847392,32.442548 22.349825,35.902916 17,40.538459 16.136923,39.243845 15.273846,37.94923 14.384615,36.615383 c 1.849969,-1.257031 3.70317,-2.509308 5.557692,-3.759615 1.031647,-0.697879 2.063293,-1.395757 3.126202,-2.114783 6.241753,-3.988936 9.92279,-4.877415 17.46995,-4.587139 z"
     fill="#7b731b"
     id="path40"
     style="stroke-width:1.3077" />
  <path
     d="m 44.461536,32.692307 c 0.863077,0.431538 1.726154,0.863076 2.615385,1.307692 0.532613,3.035894 0.973429,6.089764 1.307692,9.153845 -0.863077,0 -1.726154,0 -2.615384,0 0,9.062307 0,18.124615 0,27.461538 -0.431538,0 -0.863077,0 -1.307693,0 0,-3.452308 0,-6.904616 0,-10.461538 -0.863077,-0.431538 -1.726154,-0.863077 -2.615384,-1.307693 0.180752,-4.114283 0.375112,-8.22781 0.572116,-12.341345 0.05142,-1.174088 0.102823,-2.348176 0.155799,-3.557843 0.05478,-1.116774 0.109568,-2.233548 0.166015,-3.384164 0.04794,-1.03407 0.09587,-2.068139 0.145264,-3.133545 0.268498,-2.429255 0.268498,-2.429255 1.57619,-3.736947 z"
     fill="#f0e61a"
     id="path41"
     style="stroke-width:1.3077" />
  <path
     d="m 31.384615,41.846152 c 1.464623,4.393874 1.073395,6.060614 0,10.461538 -0.242741,0.997933 -0.485481,1.995865 -0.735578,3.024039 -0.188798,0.728221 -0.377596,1.456442 -0.572115,2.20673 1.483414,0.161827 2.966826,0.323654 4.495192,0.490385 1.537356,0.269712 3.074712,0.539423 4.658653,0.817307 0.431539,0.863077 0.863077,1.726154 1.307692,2.615385 -4.746922,0 -9.493845,0 -14.384613,0 0.36814,-2.780635 0.752619,-5.559111 1.14423,-8.336538 0.212398,-1.54747 0.424796,-3.094939 0.64363,-4.689303 0.827524,-3.974159 0.827524,-3.974159 3.442909,-6.589543 z"
     fill="#948f93"
     id="path42"
     style="stroke-width:1.3077" />
  <path
     d="m 33.999999,44.461536 c 3.883846,0.647309 3.883846,0.647309 7.846153,1.307693 0,3.452307 0,6.904615 0,10.461538 -3.020769,0 -6.041538,0 -9.153845,0 0.431538,-3.883846 0.863076,-7.767692 1.307692,-11.769231 z"
     fill="#f4f3f4"
     id="path43"
     style="stroke-width:1.3077" />
  <path
     d="m 56.230767,27.461538 c 8.062311,0.413451 13.30274,4.566658 19.615384,9.153845 -1.294615,1.294616 -2.589231,2.589231 -3.923077,3.923076 -0.863077,-1.726152 -1.726154,-3.452306 -2.615384,-5.230767 -1.726154,0 -3.452308,0 -5.230769,0 0,-0.863077 0,-1.726154 0,-2.615385 -3.883846,-0.647309 -3.883846,-0.647309 -7.846154,-1.307692 0,-1.294616 0,-2.589231 0,-3.923077 z"
     fill="#776f19"
     id="path44"
     style="stroke-width:1.3077" />
  <path
     d="m 65.384613,70.615382 c 0,2.157692 0,4.315385 0,6.538458 -3.020769,0.43154 -6.041539,0.86308 -9.153846,1.3077 -0.863077,-2.1577 -1.726154,-4.315389 -2.615385,-6.538466 8.826923,-1.307692 8.826923,-1.307692 11.769231,-1.307692 z"
     fill="#7f771d"
     id="path45"
     style="stroke-width:1.3077" />
  <path
     d="m 24.846153,71.923074 c 3.883846,0 7.767692,0 11.76923,0 -0.863076,3.020769 -1.726153,6.041536 -2.615384,9.153846 -0.431539,-0.86308 -0.863077,-1.72615 -1.307692,-2.61538 -3.961452,-0.86011 -3.961452,-0.86011 -7.846154,-1.3077 0,-1.726151 0,-3.452305 0,-5.230766 z"
     fill="#81791e"
     id="path46"
     style="stroke-width:1.3077" />
  <path
     d="m 35.307692,88.92308 c 5.609999,0 11.219999,0 16.999998,0 0.431539,0.86308 0.863077,1.72614 1.307692,2.61538 -3.252947,1.62647 -5.52703,1.48169 -9.153846,1.47115 -1.159759,0.003 -2.319518,0.007 -3.514422,0.0103 -3.024039,-0.17369 -3.024039,-0.17369 -5.639422,-1.48137 0,-0.86308 0,-1.72616 0,-2.61539 z"
     fill="#272019"
     id="path47"
     style="stroke-width:1.3077" />
  <path
     d="m 61.461536,49.692305 c 0.431539,0 0.863077,0 1.307692,0 0.431539,3.883847 0.863077,7.767693 1.307693,11.769231 -4.746923,0 -9.493846,0 -14.384616,0 4.036444,-4.036443 5.125209,-4.509644 10.461539,-5.230769 0.431539,-2.157692 0.863077,-4.315385 1.307692,-6.538462 z"
     fill="#8f8a8e"
     id="path48"
     style="stroke-width:1.3077" />
  <path
     d="m 65.384613,79.76923 c 0.863077,0.43154 1.726154,0.86307 2.615384,1.30769 0,0.86308 0,1.72615 0,2.61538 -1.294615,0.86308 -2.589231,1.72616 -3.923076,2.61539 0.863076,0.86307 1.726153,1.72615 2.615384,2.61539 -4.315385,0.86308 -8.630768,1.72614 -13.076923,2.61538 0,-1.29462 0,-2.58923 0,-3.92308 2.157693,0 4.315385,0 6.538462,0 0.431539,-1.72615 0.863077,-3.45231 1.307692,-5.23077 1.294616,0 2.589231,0 3.923077,0 0,-0.86307 0,-1.72615 0,-2.61538 z"
     fill="#554e1a"
     id="path49"
     style="stroke-width:1.3077" />
  <path
     d="m 41.846152,24.846153 c 1.294616,0.431538 2.589231,0.863077 3.923077,1.307693 1.294616,-0.431539 2.58923,-0.863077 3.923076,-1.307693 2.860578,0.572115 2.860578,0.572115 5.23077,1.307693 0,1.294614 0,2.589229 0,3.923076 -3.883846,0 -7.767692,0 -11.769231,0 -0.431538,-1.726153 -0.863077,-3.452307 -1.307692,-5.230769 z"
     fill="#7c741c"
     id="path50"
     style="stroke-width:1.3077" />
  <path
     d="m 56.230767,75.846151 c 0,1.726149 0,3.452309 0,5.230769 -6.211538,1.47115 -6.211538,1.47115 -9.153846,0 0,-1.29462 0,-2.58923 0,-3.92308 3.923077,-1.307689 3.923077,-1.307689 9.153846,-1.307689 z"
     fill="#cbc212"
     id="path51"
     style="stroke-width:1.3077" />
  <path
     d="m 31.384615,41.846152 c 1.464623,4.393874 1.073395,6.060614 0,10.461538 -0.188799,0.970962 -0.377596,1.941923 -0.572117,2.942308 -0.24274,0.755192 -0.48548,1.510384 -0.735576,2.288461 -1.294616,0.647308 -1.294616,0.647308 -2.615384,1.307692 -0.358696,-7.054336 -0.471497,-11.140568 3.923077,-16.999999 z"
     fill="#a39fa2"
     id="path52"
     style="stroke-width:1.3077" />
  <path
     d="m 32.692307,41.846152 c 2.157692,0 4.315384,0 6.53846,0 -1.307692,3.923077 -1.307692,3.923077 -3.923075,5.230769 0,1.294616 0,2.589231 0,3.923077 -1.294616,0 -2.589231,0 -3.923077,0 0.431538,-3.020769 0.863077,-6.041538 1.307692,-9.153846 z"
     fill="#d7d5d7"
     id="path53"
     style="stroke-width:1.3077" />
  <path
     d="m 44.461536,32.692307 c 0.863077,0.431538 1.726154,0.863076 2.615385,1.307692 0.532613,3.035894 0.973429,6.089764 1.307692,9.153845 -1.726154,0 -3.452306,0 -5.230769,0 -0.05547,-3.050777 -0.05352,-6.103033 0,-9.153845 0.431539,-0.431539 0.863077,-0.863077 1.307692,-1.307692 z"
     fill="#afa712"
     id="path54"
     style="stroke-width:1.3077" />
  <path
     d="m 26.153846,81.07692 c 3.452306,1.29461 6.904614,2.58923 10.461537,3.92308 -0.431538,0.86307 -0.863076,1.72615 -1.307691,2.61538 -3.02077,-0.43154 -6.041539,-0.86308 -9.153846,-1.30769 0,-1.72615 0,-3.45231 0,-5.23077 z"
     fill="#7f7617"
     id="path55"
     style="stroke-width:1.3077" />
  <path
     d="m 54.923075,47.076921 c 1.294616,0 2.58923,0 3.923076,0 -0.431538,3.02077 -0.863077,6.041539 -1.307692,9.153846 -1.726154,0 -3.452308,0 -5.230769,0 1.307692,-2.615385 1.307692,-2.615385 2.615385,-3.923077 -0.863077,-0.863077 -1.726154,-1.726154 -2.615385,-2.615385 0.863077,-0.863077 1.726154,-1.726153 2.615385,-2.615384 z"
     fill="#e1dfe1"
     id="path56"
     style="stroke-width:1.3077" />
  <path
     d="m 57.538459,43.153844 c 1.294616,0.431539 2.589231,0.863077 3.923077,1.307692 0,2.589231 0,5.178462 0,7.846154 -1.294615,0.647307 -1.294615,0.647307 -2.615385,1.307692 0,-2.157692 0,-4.315383 0,-6.538461 -0.863077,0 -1.726154,0 -2.615384,0 0.431539,-1.294615 0.863077,-2.589231 1.307692,-3.923077 z"
     fill="#aeaaad"
     id="path57"
     style="stroke-width:1.3077" />
  <path
     d="m 39.230767,41.846152 c 1.294616,0 2.589231,0 3.923077,0 0,5.178461 0,10.356923 0,15.692307 -0.431538,0 -0.863077,0 -1.307692,0 0,-3.883846 0,-7.767691 0,-11.76923 -1.294615,-0.431538 -2.58923,-0.863077 -3.923077,-1.307693 0.431539,-0.863077 0.863077,-1.726154 1.307692,-2.615384 z"
     fill="#b4b1b3"
     id="path58"
     style="stroke-width:1.3077" />
  <path
     d="m 24.846153,37.923075 c 0.863077,0.431539 1.726154,0.863077 2.615385,1.307692 -1.674664,2.232885 -3.423115,4.41181 -5.230769,6.538462 -0.863077,0 -1.726154,0 -2.615385,0 -1.294616,0.647308 -1.294616,0.647308 -2.615384,1.307692 1.822041,-4.403267 3.895521,-6.520091 7.846153,-9.153846 z"
     fill="#ede304"
     id="path59"
     style="stroke-width:1.3077" />
  <path
     d="m 45.769229,79.76923 c 2.778846,1.22596 2.778846,1.22596 5.230769,2.61538 0,0.43154 0,0.86308 0,1.30769 -4.315384,0 -8.630769,0 -13.076923,0 2.615384,-1.30769 5.230769,-2.61538 7.846154,-3.92307 z"
     fill="#98901d"
     id="path60"
     style="stroke-width:1.3077" />
  <path
     d="m 60.153844,57.538459 c -0.431538,1.294616 -0.863077,2.589231 -1.307693,3.923077 -3.020768,0 -6.041537,0 -9.153846,0 3.224937,-4.073604 5.372576,-4.335695 10.461539,-3.923077 z"
     fill="#989397"
     id="path61"
     style="stroke-width:1.3077" />
  <path
     d="m 48.384613,41.846152 c 1.294616,0.431539 2.589231,0.863077 3.923077,1.307692 -0.863077,0.863077 -1.726154,1.726154 -2.615385,2.615385 -0.60162,2.880205 -0.60162,2.880205 -0.817307,6.048077 -0.09777,1.068732 -0.195541,2.137464 -0.296274,3.238581 -0.09609,1.228873 -0.09609,1.228873 -0.194111,2.482572 -0.431538,0 -0.863077,0 -1.307692,0 -0.03514,-2.370087 -0.06059,-4.740322 -0.08173,-7.110576 -0.01517,-1.319902 -0.03035,-2.639802 -0.04597,-3.9997 0.127704,-3.274339 0.127704,-3.274339 1.435396,-4.582031 z"
     fill="#b4b1b3"
     id="path62"
     style="stroke-width:1.3077" />
</svg>
