<?xml version="1.0" encoding="UTF-8" standalone="no"?>
<svg
   version="1.0"
   width="244.35899pt"
   height="61.609001pt"
   viewBox="0 0 244.35899 61.609"
   preserveAspectRatio="xMidYMid"
   id="svg11"
   sodipodi:docname="Dicoding-1.svg"
   xml:space="preserve"
   inkscape:version="1.3.2 (091e20e, 2023-11-25, custom)"
   xmlns:inkscape="http://www.inkscape.org/namespaces/inkscape"
   xmlns:sodipodi="http://sodipodi.sourceforge.net/DTD/sodipodi-0.dtd"
   xmlns="http://www.w3.org/2000/svg"
   xmlns:svg="http://www.w3.org/2000/svg"><defs
     id="defs11" /><sodipodi:namedview
     id="namedview11"
     pagecolor="#505050"
     bordercolor="#eeeeee"
     borderopacity="1"
     inkscape:showpageshadow="0"
     inkscape:pageopacity="0"
     inkscape:pagecheckerboard="0"
     inkscape:deskcolor="#505050"
     inkscape:document-units="pt"
     inkscape:zoom="1.891058"
     inkscape:cx="278.41558"
     inkscape:cy="218.66067"
     inkscape:window-width="1920"
     inkscape:window-height="1057"
     inkscape:window-x="-8"
     inkscape:window-y="-8"
     inkscape:window-maximized="1"
     inkscape:current-layer="g11" /><g
     transform="matrix(0.1,0,0,-0.1,0,201)"
     fill="#000000"
     stroke="none"
     id="g11"><g
       id="g1"
       transform="matrix(0.61976741,0,0,0.61976741,-29.176794,776.66285)"><path
         d="m 524.09266,1980.0094 c -6.49389,-5.9944 -13.4873,-16.4845 -16.48448,-23.4779 -2.49765,-6.4939 -4.49577,-60.4431 -4.49577,-119.8871 v -107.3989 l -10.98965,7.9924 c -79.42524,56.9464 -197.31426,63.9398 -290.72633,16.9841 -60.4431,-30.4714 -122.884322,-104.4018 -143.365042,-168.3416 -12.488244,-38.9633 -14.486363,-104.4017 -4.995298,-145.3631 9.491066,-39.4629 36.465673,-93.9116 60.4431,-121.3858 27.47414,-30.9708 76.42806,-65.4384 115.89091,-81.9229 37.96426,-15.4854 114.39231,-20.9802 160.34905,-11.4891 93.9116,19.4816 186.32461,107.8984 213.79874,204.8072 4.9953,16.984 5.99436,82.4224 4.9953,277.239 l -1.49859,254.7602 -11.48918,11.9887 c -16.98401,17.4835 -55.94734,20.4807 -71.43276,5.4948 z M 401.20834,1662.808 c 38.96332,-18.9821 69.43464,-48.4544 87.41771,-84.9201 14.98589,-30.4713 15.48542,-34.4675 13.4873,-80.9238 -1.49859,-43.4591 -3.49671,-52.4506 -15.98495,-73.9304 -21.97931,-36.9652 -50.95204,-65.9379 -82.42241,-80.9238 -24.47696,-11.9887 -33.96803,-13.9868 -72.93135,-13.9868 -39.46285,0 -48.45439,1.4985 -74.92946,14.4863 -36.46568,17.9831 -74.42994,54.9483 -88.9163,86.9182 -8.99154,18.9821 -10.98966,32.4694 -10.98966,70.9332 0,42.4601 1.49859,50.4525 14.48637,75.9286 25.47601,50.952 67.93604,86.4186 116.39043,98.9068 30.47132,7.493 85.41959,1.4986 114.39232,-12.4882 z"
         id="path1"
         style="fill:#2d3e50;fill-opacity:1;stroke-width:0.49953" /><path
         d="m 2438.7903,1975.0141 -14.9859,-15.4854 -2.4977,-115.3914 -2.4976,-114.8918 -12.4883,9.9906 c -36.9652,28.9727 -94.9106,45.9567 -157.3519,45.9567 -74.4299,0 -138.8692,-25.9756 -192.8184,-78.4262 -64.4394,-61.9417 -89.9154,-118.8881 -90.4149,-201.3105 0,-86.4186 35.4666,-164.3453 99.4064,-217.2954 59.444,-48.9539 107.8984,-66.937 181.3293,-67.4365 121.8853,0 217.795,68.4355 268.747,190.8203 l 12.9878,31.4704 -1.4986,259.7555 -0.9991,259.7555 -11.9887,11.9887 c -7.9925,8.492 -18.9821,12.4882 -35.9661,13.9868 -21.9793,1.9981 -25.476,0.9991 -38.9633,-13.4873 z M 2319.4026,1662.808 c 38.9634,-18.9821 69.4347,-48.4544 87.4178,-84.9201 14.9858,-30.9708 15.4854,-33.968 13.4873,-80.9238 -1.4986,-38.4638 -4.4958,-53.9492 -13.4873,-70.9332 -16.9841,-32.969 -52.9502,-68.4356 -84.9201,-83.921 -24.477,-11.9887 -33.968,-13.9868 -72.9314,-13.9868 -39.4628,0 -48.4543,1.9981 -73.9304,13.9868 -35.9661,17.9831 -72.9313,53.4497 -87.9172,85.4196 -14.4864,29.4722 -18.9821,81.9229 -10.4901,116.8899 9.9906,42.9596 53.4497,96.9088 93.412,117.8891 41.9605,21.4798 105.9004,21.4798 149.3594,0.4995 z"
         id="path2"
         style="fill:#2d3e50;fill-opacity:1;stroke-width:0.49953" /><path
         d="M 3390.3945,1492.9679 V 995.93576 h 299.7178 299.7179 V 1492.9679 1990 h -299.7179 -299.7178 z m 385.1374,273.7423 c 86.9182,-29.4723 157.8514,-103.4027 184.826,-191.8194 9.4911,-30.9709 9.9906,-43.9587 8.492,-212.3002 -1.4986,-173.3368 -1.9981,-179.8307 -12.4882,-199.8119 -31.4704,-58.445 -92.413,-111.3951 -158.8505,-137.8702 -32.9689,-12.9878 -48.9539,-15.985 -92.413,-17.9831 -93.9116,-3.9962 -155.8533,19.9812 -222.7903,85.9191 -45.4572,44.9577 -61.9417,72.4319 -61.9417,102.9032 0,28.9727 24.477,49.9529 58.445,49.9529 13.9869,0 51.4516,-34.4675 51.4516,-47.4553 0,-11.9887 49.953,-56.9464 79.4252,-70.9332 36.4657,-16.984 95.9097,-21.4798 136.3717,-9.4911 36.9652,10.4902 71.9322,34.9671 94.9106,65.4384 17.4836,22.9784 18.9821,27.4742 18.9821,58.445 v 33.4685 l -25.476,-17.4835 c -39.9624,-26.9746 -72.4318,-34.4676 -144.3641,-34.4676 -70.9332,0.4995 -94.9106,7.493 -149.8589,42.9596 -47.9549,30.9708 -76.4281,62.4412 -98.9069,109.8965 -40.9614,85.4196 -41.9605,163.8458 -2.9972,243.271 38.9633,79.4252 119.3876,140.8674 206.8053,157.8514 26.9747,4.9953 102.9032,-0.999 130.3773,-10.4901 z"
         id="path3"
         style="fill:#2d3e50;fill-opacity:1;stroke-width:0.49953" /><path
         d="m 3625.1735,1659.8108 c -32.4695,-12.9877 -71.4328,-50.952 -89.9154,-87.4177 -10.9897,-20.9802 -12.4882,-30.9708 -12.4882,-74.4299 0,-45.9568 0.999,-51.9511 14.4863,-76.4281 16.984,-29.9718 40.4619,-53.4497 75.9285,-73.9304 22.9784,-13.4873 27.9737,-14.4863 76.9276,-14.4863 46.9558,0 54.9483,1.4985 77.4271,13.4873 31.4704,16.4844 64.4394,51.4515 80.4243,85.4196 14.4864,31.9699 16.4845,92.9125 3.9963,129.8777 -9.9906,29.9718 -42.9596,65.9379 -78.9257,87.9172 -25.4761,15.4855 -32.4695,16.984 -74.43,18.9822 -38.4638,1.4985 -50.4525,0 -73.4308,-8.9916 z"
         id="path4"
         style="fill:#2d3e50;fill-opacity:1;stroke-width:0.49953" /><path
         d="m 728.89986,1907.0781 c -27.97366,-19.4817 -31.9699,-58.445 -8.492,-83.921 16.98401,-18.4826 50.45251,-18.4826 71.93229,0 12.98777,10.9896 15.48542,16.4844 15.48542,35.4666 0,27.4741 -5.99436,38.9633 -24.97649,48.9539 -18.4826,9.4911 -39.96238,9.4911 -53.94922,-0.4995 z"
         id="path5"
         style="fill:#2d3e50;fill-opacity:1;stroke-width:0.49953" /><path
         d="m 2641.0998,1900.5842 c -19.9812,-19.4817 -22.9784,-36.4657 -11.9887,-60.9427 10.4901,-23.9774 19.4817,-29.4722 46.4563,-29.4722 13.9868,0 23.9774,3.9962 34.9671,12.9878 12.9877,10.9896 15.4854,16.4844 15.4854,35.4666 0,27.4741 -5.9944,38.9633 -24.9765,48.9539 -22.9784,11.9887 -43.4591,9.4911 -59.9436,-6.9934 z"
         id="path6"
         style="fill:#2d3e50;fill-opacity:1;stroke-width:0.49953" /><path
         d="m 734.39469,1780.1975 c -6.49388,-2.4977 -15.98495,-11.9887 -21.47978,-20.9803 -9.99059,-15.9849 -9.99059,-23.4779 -8.99153,-262.7526 l 1.49859,-246.7677 16.48448,-14.4864 c 8.99153,-7.9925 21.97931,-14.4863 28.47319,-14.4863 18.98214,0 45.95674,12.4882 51.9511,23.9774 3.99624,6.9934 5.49483,90.4149 5.49483,259.7555 v 249.2653 l -10.98966,10.4901 c -11.48918,10.4902 -34.96708,21.4798 -45.45721,20.4808 -3.4967,0 -10.98965,-1.9982 -16.98401,-4.4958 z"
         id="path7"
         style="fill:#2d3e50;fill-opacity:1;stroke-width:0.49953" /><path
         d="m 2651.0904,1778.6989 c -6.9934,-3.4967 -16.4845,-13.9868 -20.9802,-23.4779 -7.9925,-15.9849 -8.9916,-38.9633 -8.9916,-254.7602 0,-228.2851 0.4996,-237.7761 9.9906,-253.7611 5.4948,-8.9915 15.4854,-18.4826 21.9793,-21.4798 16.984,-7.9924 46.4563,-1.4986 60.9427,12.9878 l 11.9887,11.9887 v 251.763 251.763 l -10.9897,10.4901 c -11.4892,10.4902 -34.4675,20.9803 -45.4572,20.9803 -3.4967,0 -11.4892,-2.9972 -18.4826,-6.4939 z"
         id="path8"
         style="fill:#2d3e50;fill-opacity:1;stroke-width:0.49953" /><path
         d="m 1083.0665,1772.205 c -64.4394,-16.984 -128.37918,-64.4393 -166.84297,-121.8852 -27.97367,-41.9605 -39.96238,-79.9248 -42.46003,-134.8731 -2.49765,-57.9454 6.49388,-95.9097 34.96708,-151.3575 32.96897,-63.4403 103.40262,-116.89 180.33022,-136.8712 46.9558,-11.9887 110.8956,-6.4938 160.8486,12.9878 44.4582,17.9831 87.9173,45.4572 99.4064,62.9408 18.4826,28.4732 1.9982,74.4299 -28.9727,79.9247 -20.9802,3.9963 -35.4666,0 -56.9464,-15.9849 -77.4271,-57.9455 -169.8401,-51.9511 -237.7762,16.4845 -34.96704,34.4675 -45.45716,61.4421 -45.45716,114.3923 0,39.4628 1.99812,48.4544 13.98683,73.4309 17.98303,36.9652 51.95113,71.4327 84.92003,86.4186 21.4798,10.4901 33.4685,12.4882 70.9333,12.4882 48.9539,0 60.9426,-3.9962 114.3923,-36.9652 35.4666,-21.4797 56.4468,-22.9783 75.9285,-6.4938 10.4901,8.9915 13.9868,17.4835 15.985,37.4647 1.9981,25.476 1.9981,26.4751 -19.4817,45.9567 -27.4741,24.9765 -78.9257,52.4507 -117.3895,62.4413 -35.9661,9.491 -100.4055,8.9915 -136.3716,-0.4996 z"
         id="path9"
         style="fill:#2d3e50;fill-opacity:1;stroke-width:0.49953" /><path
         d="m 2849.9033,1765.7111 -16.4845,-14.4863 v -250.764 -250.7639 l 16.4845,-14.4864 c 8.9915,-7.9925 21.9793,-14.4863 28.4732,-14.4863 15.9849,0 44.9576,11.9887 50.4525,20.4807 2.4976,3.9962 5.4948,74.4299 6.9934,156.8523 2.9972,169.8401 3.4967,172.3378 47.4553,220.7922 30.9708,34.4675 60.9426,48.4544 109.8966,50.4525 93.412,3.9962 158.3509,-51.4516 172.3377,-146.3622 2.4977,-18.9822 4.9953,-88.4168 4.9953,-153.8552 0,-118.3886 0,-118.8881 11.9887,-130.8768 15.985,-15.985 42.4601,-20.4807 62.4413,-10.4901 31.4703,16.4845 31.4703,16.4845 29.4722,183.8269 -1.9981,148.3604 -1.9981,151.8571 -14.4864,184.826 -6.9934,18.4826 -20.4807,44.9577 -29.4722,58.9446 -36.4657,56.9463 -111.3951,106.8993 -178.8317,120.3866 -63.9398,11.9887 -145.3631,-2.4976 -192.3189,-34.9671 l -21.4798,-14.4863 -4.9953,15.4854 c -5.4948,18.9821 -32.4694,38.4638 -52.4506,38.4638 -8.9916,0 -20.9803,-5.4948 -30.4713,-14.4864 z"
         id="path10"
         style="fill:#2d3e50;fill-opacity:1;stroke-width:0.49953" /><path
         d="m 1592.0873,1765.7111 c -64.9389,-20.9802 -125.382,-66.4374 -160.3491,-120.8862 -68.9351,-107.8984 -49.4534,-256.2587 44.9577,-345.175 35.9662,-34.4676 81.9229,-61.4422 122.3848,-71.9323 33.4685,-8.9916 103.4027,-8.9916 137.8702,0.4995 96.9088,25.9756 177.3331,105.9003 202.3096,200.811 9.4911,36.4656 9.4911,100.905 0,136.3716 -24.9765,94.4111 -102.9031,174.3359 -196.8147,201.81 -37.4648,10.9897 -114.3924,9.9906 -150.3585,-1.4986 z m 148.3603,-112.3942 c 33.4685,-15.9849 68.9352,-51.4515 84.9201,-85.9191 11.4892,-24.9765 12.4882,-32.4694 10.4901,-76.428 -1.4986,-41.9605 -3.4967,-51.4516 -15.9849,-72.4319 -19.9812,-33.968 -49.4535,-61.9416 -80.9238,-76.428 -38.4638,-17.4835 -100.4055,-17.4835 -137.8703,0 -37.4647,16.984 -70.9332,48.9539 -87.4177,82.4224 -11.9887,24.9765 -13.9868,33.968 -13.9868,73.4309 0.4995,36.9652 2.4976,48.9539 11.9887,67.4365 26.4751,51.4516 64.9389,85.9191 109.397,98.4074 32.4695,8.9915 86.4187,4.4957 119.3876,-10.4902 z"
         id="path11"
         style="fill:#2d3e50;fill-opacity:1;stroke-width:0.49953" /></g></g></svg>
