<?xml version="1.0" encoding="UTF-8" standalone="no"?>
<svg
   version="1.0"
   width="234.85699pt"
   height="26.972pt"
   viewBox="0 0 234.85699 26.972"
   preserveAspectRatio="xMidYMid"
   id="svg20"
   sodipodi:docname="images-_7_.svg"
   inkscape:version="1.3.2 (091e20e, 2023-11-25, custom)"
   xmlns:inkscape="http://www.inkscape.org/namespaces/inkscape"
   xmlns:sodipodi="http://sodipodi.sourceforge.net/DTD/sodipodi-0.dtd"
   xmlns="http://www.w3.org/2000/svg"
   xmlns:svg="http://www.w3.org/2000/svg">
  <defs
     id="defs20" />
  <sodipodi:namedview
     id="namedview20"
     pagecolor="#505050"
     bordercolor="#eeeeee"
     borderopacity="1"
     inkscape:showpageshadow="0"
     inkscape:pageopacity="0"
     inkscape:pagecheckerboard="0"
     inkscape:deskcolor="#505050"
     inkscape:document-units="pt"
     inkscape:zoom="2.5025"
     inkscape:cx="161.23876"
     inkscape:cy="7.3926074"
     inkscape:window-width="1920"
     inkscape:window-height="1057"
     inkscape:window-x="-8"
     inkscape:window-y="-8"
     inkscape:window-maximized="1"
     inkscape:current-layer="g20" />
  <g
     transform="matrix(0.1,0,0,-0.1,0,72)"
     fill="#000000"
     stroke="none"
     id="g20">
    <g
       id="g21"
       transform="translate(-15,15)">
      <path
         d="m 374.20962,692.06697 c -13.88279,-8.32967 -27.76559,-31.7321 -29.74885,-49.97806 l -1.18995,-11.50289 52.75463,-1.18995 52.35797,-1.18996 V 664.30138 700 h -30.54215 c -23.79908,0 -34.11202,-1.98326 -43.63165,-7.93303 z"
         id="path1"
         style="fill:#bb0303;fill-opacity:1;stroke-width:0.396651" />
      <path
         d="m 480.11552,664.30138 v -35.69862 h 51.56467 51.56468 V 664.30138 700 h -51.56468 -51.56467 z"
         id="path2"
         style="fill:#bb0303;fill-opacity:1;stroke-width:0.396651" />
      <path
         d="m 614.97697,664.30138 v -35.69862 h 53.94458 53.94458 l -2.77656,13.0895 c -4.36317,21.02252 -15.86605,40.06178 -29.74885,49.58141 C 679.63113,698.41339 671.69811,700 646.31242,700 h -31.33545 z"
         id="path3"
         style="fill:#bb0303;fill-opacity:1;stroke-width:0.396651" />
      <path
         d="M 20,565.13855 V 434.24362 H 51.732105 83.46421 v 51.56467 51.56467 h 99.16283 99.16283 v 27.76559 27.7656 H 182.62704 83.46421 v 21.81582 21.81582 h 115.02888 115.02888 v 29.74885 29.74885 H 166.76099 20 Z"
         id="path4"
         style="stroke-width:0.396651" />
      <path
         d="M 769.67098,565.13855 V 434.24362 h 31.73211 31.7321 v 51.56467 51.56467 h 78.53696 c 55.92784,0 79.72692,-1.18995 83.29678,-4.75981 3.17321,-3.17321 4.75982,-20.62587 4.75982,-51.56468 v -46.80485 h 31.73215 31.7321 v 47.20151 c 0,41.64838 -0.7933,47.99481 -8.3297,57.51444 l -8.3297,10.31293 9.5196,15.07275 c 7.9331,12.29619 9.123,19.83257 8.7264,48.39146 -0.3967,50.37472 -13.8828,70.60393 -53.548,78.93361 -11.50285,2.37991 -66.63739,4.36317 -130.49825,4.36317 H 769.67098 Z m 230.45442,61.87761 c 3.1732,-6.34642 3.1732,-13.48615 0.7933,-21.02252 l -3.96651,-11.10624 -81.71017,-1.18995 -82.10683,-0.7933 v 21.81582 21.81582 h 81.31352 81.31352 z"
         id="path5"
         style="stroke-width:0.396651" />
      <path
         d="m 1099.6849,667.47459 1.1899,-28.95554 30.9388,-1.18996 30.5422,-1.18995 V 535.3897 434.24362 h 31.7321 31.7321 V 535.3897 636.53579 h 57.5144 57.5145 v 29.74885 29.74885 h -120.9787 -121.3753 z"
         id="path6"
         style="stroke-width:0.396651" />
      <path
         d="M 1376.5475,565.13855 V 434.24362 h 31.7321 31.7321 v 130.89493 130.89494 h -31.7321 -31.7321 z"
         id="path7"
         style="stroke-width:0.396651" />
      <path
         d="M 1487.6099,565.5352 V 434.24362 h 31.7321 31.7321 V 535.3897 636.53579 h 81.3135 81.3135 l 3.9665,-10.31293 c 2.3799,-5.55312 3.9665,-51.16802 3.9665,-101.14609 v -90.83315 h 32.1288 31.7321 l -1.19,100.35278 c -1.1899,95.59297 -1.5866,100.74944 -10.3129,118.9954 -6.7431,13.48614 -14.6761,21.81582 -27.7656,29.74884 l -18.6426,10.70959 -119.7887,1.18995 -120.1853,1.18996 z"
         id="path8"
         style="stroke-width:0.396651" />
      <path
         d="M 1832.6965,565.13855 V 434.24362 h 128.9117 128.9117 v 27.76559 27.76559 h -97.1796 -97.1796 v 23.79908 23.79908 h 67.4307 67.4308 v 27.76559 27.7656 h -67.4308 -67.4307 v 21.81582 21.81582 h 97.1796 97.1796 v 29.74885 29.74885 h -128.9117 -128.9117 z"
         id="path9"
         style="stroke-width:0.396651" />
      <path
         d="m 2123.0453,667.47459 1.1899,-28.95554 30.9388,-1.18996 30.5422,-1.18995 V 535.3897 434.24362 h 31.7321 31.7321 V 535.3897 636.13914 l 58.7044,1.18995 58.3077,1.18996 1.19,28.95554 1.1899,28.5589 h -123.3585 -123.3586 z"
         id="path10"
         style="stroke-width:0.396651" />
      <path
         d="m 393.64554,598.06061 -52.75463,-1.5866 1.18996,-32.52541 1.18995,-32.52541 52.75463,-1.18995 52.35797,-1.18996 v 36.09527 c 0,19.43592 -0.39665,35.30197 -0.7933,34.90532 -0.79331,-0.39665 -24.98904,-1.58661 -53.94458,-1.98326 z"
         id="path11"
         style="fill:#bb0303;fill-opacity:1;stroke-width:0.396651" />
      <path
         d="m 614.97697,563.1553 v -33.71536 h 53.54793 53.54793 v 33.71536 33.71536 H 668.5249 614.97697 Z"
         id="path12"
         style="fill:#bb0303;fill-opacity:1;stroke-width:0.396651" />
      <path
         d="m 343.66747,498.50113 c -4.75981,-7.93302 7.53638,-38.47517 21.41917,-52.75462 l 14.6761,-15.4694 h 34.11201 34.50867 v 35.69861 35.69862 H 397.2154 c -28.5589,0 -52.35797,-1.5866 -53.54793,-3.17321 z"
         id="path13"
         style="fill:#bb0303;fill-opacity:1;stroke-width:0.396651" />
      <path
         d="m 480.11552,465.18242 v -34.90531 h 51.56467 51.56468 v 34.90531 34.50867 h -51.56468 -51.56467 z"
         id="path14"
         style="fill:#bb0303;fill-opacity:1;stroke-width:0.396651" />
      <path
         d="m 614.97697,465.97572 v -35.69861 h 33.71536 c 31.73211,0 34.11202,0.7933 47.20151,11.89954 12.29619,11.10623 26.17899,39.66513 26.17899,54.34123 0,3.96651 -11.89954,5.15646 -53.54793,5.15646 h -53.54793 z"
         id="path15"
         style="fill:#bb0303;fill-opacity:1;stroke-width:0.396651" />
    </g>
  </g>
</svg>
