<?xml version="1.0" encoding="UTF-8" standalone="no"?>
<svg
   version="1.0"
   width="228.27299pt"
   height="39.071999pt"
   viewBox="0 0 228.27299 39.071999"
   preserveAspectRatio="xMidYMid"
   id="svg9"
   sodipodi:docname="images-_6_.svg"
   inkscape:version="1.3.2 (091e20e, 2023-11-25, custom)"
   xmlns:inkscape="http://www.inkscape.org/namespaces/inkscape"
   xmlns:sodipodi="http://sodipodi.sourceforge.net/DTD/sodipodi-0.dtd"
   xmlns="http://www.w3.org/2000/svg"
   xmlns:svg="http://www.w3.org/2000/svg">
  <defs
     id="defs9" />
  <sodipodi:namedview
     id="namedview9"
     pagecolor="#505050"
     bordercolor="#eeeeee"
     borderopacity="1"
     inkscape:showpageshadow="0"
     inkscape:pageopacity="0"
     inkscape:pagecheckerboard="0"
     inkscape:deskcolor="#505050"
     inkscape:document-units="pt"
     inkscape:zoom="0.49062885"
     inkscape:cx="585.98266"
     inkscape:cy="92.738126"
     inkscape:window-width="1920"
     inkscape:window-height="1057"
     inkscape:window-x="-8"
     inkscape:window-y="-8"
     inkscape:window-maximized="1"
     inkscape:current-layer="svg9" />
  <g
     transform="matrix(0.04220576,0,0,-0.04220576,0.08178522,39.251356)"
     fill="#000000"
     stroke="none"
     id="g9">
    <path
       d="M 328,881 C 113,768 25,714 13,690 3,671 0,611 2,453 5,255 6,239 25,221 54,194 392,11 426,5 c 23,-5 66,14 211,92 100,54 193,108 207,120 l 26,23 v 225 225 l -26,23 c -34,29 -384,217 -406,217 -9,0 -59,-22 -110,-49 z M 574,689 c 72,-40 134,-77 138,-83 4,-6 8,-69 8,-141 0,-72 -4,-135 -8,-140 -4,-6 -24,-21 -45,-33 -27,-16 -39,-18 -42,-9 -3,6 -6,62 -7,124 l -3,111 -62,-35 -63,-35 V 324 c 0,-121 0,-124 -25,-140 -21,-14 -31,-15 -50,-6 -25,11 -25,14 -25,135 0,145 9,131 -132,207 -104,55 -118,75 -76,104 33,24 47,20 146,-34 50,-27 98,-50 106,-50 20,0 106,42 106,52 0,4 -43,30 -95,59 -52,28 -95,54 -95,58 0,8 70,50 84,51 5,0 68,-32 140,-71 z M 214,499 250,478 V 373 269 l -42,23 -43,23 -3,103 c -2,62 1,102 7,102 5,0 26,-9 45,-21 z"
       id="path1" />
    <path
       d="M 1220,464 V 259 l 43,3 42,3 5,130 c 3,74 10,139 17,151 26,46 122,56 154,17 10,-11 16,-60 19,-157 l 5,-141 h 45 45 l 5,130 c 3,74 10,139 17,151 26,46 122,56 154,17 10,-11 16,-60 19,-157 l 5,-141 h 45 45 l -1,146 c 0,127 -3,150 -20,180 -49,83 -158,105 -255,52 l -49,-26 -25,23 c -33,31 -132,40 -187,17 -31,-13 -37,-13 -42,-1 -3,9 -20,14 -46,14 h -40 z"
       id="path2" />
    <path
       d="M 2140,465 V 260 h 45 45 v 205 205 h -45 -45 z"
       id="path3" />
    <path
       d="m 2485,658 c -3,-8 -4,-99 -3,-203 l 3,-190 h 45 45 l 3,56 c 2,48 8,61 33,85 l 31,29 39,-45 c 22,-25 54,-64 72,-87 30,-40 35,-42 85,-43 28,0 52,4 52,8 0,5 -38,57 -85,116 -47,59 -85,111 -85,116 0,5 36,42 80,82 44,40 80,76 80,81 0,4 -24,7 -54,7 -54,0 -55,0 -141,-80 -47,-44 -90,-80 -95,-80 -5,0 -10,35 -12,78 l -3,77 -43,3 c -28,2 -44,-1 -47,-10 z"
       id="path4" />
    <path
       d="M 3090,465 V 260 h 45 45 v 123 c 0,104 3,127 20,154 20,34 37,41 110,45 l 45,3 v 40 40 l -53,3 c -39,2 -62,-2 -87,-17 -32,-19 -33,-19 -38,0 -4,15 -14,19 -46,19 h -41 z"
       id="path5" />
    <path
       d="m 3600,648 c -152,-77 -142,-313 15,-374 31,-11 64,-15 108,-12 121,7 190,82 191,205 0,80 -38,145 -103,180 -60,31 -149,32 -211,1 z m 192,-97 c 54,-61 32,-171 -42,-201 -130,-54 -227,124 -117,216 27,23 38,26 81,21 40,-3 55,-11 78,-36 z"
       id="path6" />
    <path
       d="m 4052,628 3,-43 78,-3 77,-3 V 420 260 h 45 45 v 160 160 h 69 c 77,0 94,11 89,57 l -3,28 -203,3 -203,2 z"
       id="path7" />
    <path
       d="m 4655,658 c -3,-8 -4,-99 -3,-203 l 3,-190 h 45 45 v 200 200 l -43,3 c -28,2 -44,-1 -47,-10 z"
       id="path8" />
    <path
       d="M 5000,465 V 260 h 45 45 v 53 c 0,48 4,57 35,87 21,20 38,30 43,24 5,-5 37,-44 72,-86 l 63,-78 h 53 c 30,0 54,2 54,5 0,3 -40,56 -90,118 l -89,112 79,80 c 44,44 80,84 80,88 0,4 -24,7 -52,7 -52,-1 -54,-2 -138,-80 -47,-44 -91,-80 -97,-80 -9,0 -13,22 -13,80 v 80 h -45 -45 z"
       id="path9" />
  </g>
</svg>
