<?xml version="1.0" encoding="UTF-8" standalone="no"?>
<!-- Created with Inkscape (http://www.inkscape.org/) -->

<svg
   width="14.169mm"
   height="14.169mm"
   viewBox="0 0 14.169 14.169"
   version="1.1"
   id="svg1"
   xml:space="preserve"
   inkscape:export-filename="logo.png"
   inkscape:export-xdpi="96"
   inkscape:export-ydpi="96"
   inkscape:version="1.3.2 (091e20e, 2023-11-25, custom)"
   sodipodi:docname="logo.svg"
   xmlns:inkscape="http://www.inkscape.org/namespaces/inkscape"
   xmlns:sodipodi="http://sodipodi.sourceforge.net/DTD/sodipodi-0.dtd"
   xmlns="http://www.w3.org/2000/svg"
   xmlns:svg="http://www.w3.org/2000/svg"><sodipodi:namedview
     id="namedview1"
     pagecolor="#505050"
     bordercolor="#eeeeee"
     borderopacity="1"
     inkscape:showpageshadow="0"
     inkscape:pageopacity="0"
     inkscape:pagecheckerboard="0"
     inkscape:deskcolor="#505050"
     inkscape:document-units="mm"
     inkscape:zoom="4.3389453"
     inkscape:cx="78.475292"
     inkscape:cy="79.627646"
     inkscape:window-width="1920"
     inkscape:window-height="1057"
     inkscape:window-x="-8"
     inkscape:window-y="-8"
     inkscape:window-maximized="1"
     inkscape:current-layer="layer1" /><defs
     id="defs1" /><g
     inkscape:label="Layer 1"
     inkscape:groupmode="layer"
     id="layer1"><path
       style="fill:#000000;stroke-width:0.745801"
       d="m 3.8933973,14.047415 c -0.311632,-0.16911 -0.330881,-0.2689 -0.364666,-1.890615 l -0.03155,-1.515467 -1.515468,-0.03155 c -1.06399298,-0.02215 -1.55759698,-0.05564 -1.65688798,-0.112377 -0.303396,-0.173347 -0.332162,-0.34107 -0.332162,-1.9366867 v -1.487052 l 1.49968098,4.18e-4 c 1.376036,3.8e-4 1.514948,0.01044 1.684856,0.122482 0.334092,0.220235 0.34689,0.290363 0.349314,1.913509 l 0.0022,1.4996847 1.910122,-7.46e-4 c 1.411687,-7.46e-4 2.021267,-0.02469 2.336069,-0.09136 1.299118,-0.275297 2.3699977,-1.3020767 2.6987917,-2.5876437 0.315638,-1.234136 -0.01096,-2.383802 -0.9443327,-3.324056 -0.325087,-0.327483 -0.605351,-0.542348 -0.885951,-0.67921 -0.761769,-0.37155 -0.942916,-0.386504 -4.696804,-0.387712 -3.30249398,-7.46e-4 -3.40840598,-0.0045 -3.60875598,-0.128665 -0.113524,-0.07018 -0.23036,-0.176718 -0.259635,-0.236792 -0.02927,-0.06004 -0.06761,-0.799625 -0.0852,-1.643454 l -0.03196,-1.53423104 4.16753798,0.02155 4.167529,0.02155 0.599877,0.173556 c 1.6232797,0.469653 2.8899847,1.33767504 3.8852337,2.66239604 0.626435,0.833812 1.143394,2.079123 1.295806,3.121484 0.106851,0.730735 0.04452,2.101062 -0.126465,2.78197 -0.66873,2.6624477 -2.83763,4.7262977 -5.5146137,5.2475177 -0.524954,0.10221 -0.900122,0.11993 -2.494204,0.11778 -1.532623,-0.002 -1.907828,-0.0196 -2.048374,-0.0959 z"
       id="path1" /></g></svg>
